<?xml version="1.0" encoding="UTF-8"?>
<svg id="Layer_2" data-name="Layer 2" xmlns="http://www.w3.org/2000/svg" viewBox="0 0 414.62 369.07">
  <defs>
    <style>
      .cls-1 {
        fill: #fff;
      }

      .cls-2 {
        fill: #0a2539;
      }

      .cls-3 {
        fill: #27aae1;
      }

      .cls-4 {
        fill: none;
      }
    </style>
  </defs>
  <g id="Layer_1-2" data-name="Layer 1">
    <g>
      <path class="cls-4" d="m202.19,347.76c4.33,0,8.61-.21,12.83-.6l-33.11-.9c6.62.98,13.39,1.5,20.28,1.5Z"/>
      <g>
        <path class="cls-1" d="m64.24,286.9l2.8-2.6c-1.01-1.09-2.24-1.97-3.59-2.59h0c-1.43-.66-3.01-.98-4.58-.98h-7.83v23.59h7.83c1.58,0,3.17-.32,4.6-.98l.14-.07-.14.06c1.35-.62,2.59-1.51,3.59-2.61h0c1-1.09,1.78-2.37,2.3-3.75.54-1.42.81-2.93.81-4.46,0-1.53-.27-3.04-.81-4.46-.53-1.39-1.32-2.68-2.34-3.77l-2.8,2.6-2.8,2.6c.33.36.58.76.79,1.3.2.52.3,1.06.3,1.72,0,.66-.11,1.21-.3,1.72-.21.55-.47.96-.8,1.32h0c-.32.35-.66.6-1.14.82h0c-.4.18-.82.28-1.42.28h-.18v-8.29h.18c.57,0,.99.1,1.39.28l.29.13-.29-.13c.48.22.84.49,1.18.84l2.8-2.6Z"/>
        <path class="cls-1" d="m52.91,249.08l3.82-.18v-.11s-3.83.18-3.83.18l3.83-.05c-.02-2.09-.53-4.08-1.39-5.84h0c-1.12-2.28-2.83-4.2-4.96-5.56-2.12-1.36-4.67-2.16-7.36-2.16h-13.74v27.46h13.74c3.78,0,7.23-1.55,9.7-4.03,2.48-2.47,4.02-5.93,4.02-9.71v-.18s-3.83.18-3.83.18h-3.83c0,1.69-.68,3.19-1.78,4.3-1.11,1.11-2.61,1.78-4.28,1.78h-6.09v-12.16h6.09c1.2,0,2.29.35,3.24.95.94.6,1.72,1.47,2.21,2.48h0c.39.79.6,1.65.62,2.57v.07s0,.18,0,.18l3.82-.18h-3.83,3.83Z"/>
        <path class="cls-2" d="m387.08,223.97v-3.83h-31.21v3.83l3.82.23c.19-3.11.29-6.26.29-9.43,0-.65-.02-1.24-.02-1.78l-3.83.04,3.83.04c0-.54.02-1.13.02-1.78v-.02h-.89s.89,0,.89,0h0s-.89,0-.89,0h.89c0-9.86-1.27-19.12-3-28.49l-1.01-3.51h-3.08v3.83l3.74-.78c-2.1-10.04-5.15-19.73-9.05-28.97-11.99-28.33-31.98-52.4-57.15-69.41-11.58-7.83-24.29-14.14-37.79-18.69l-1.22,3.62,3.82-.07-.63-34.03-9.93-7.61-2.33,3.04,3.3-1.94c-3.42-5.81-7.76-10.39-12.49-13.92-7.1-5.31-15.05-8.31-22.37-10.01-7.33-1.69-14.06-2.09-18.86-2.09-4.37,0-7.13.33-7.25.35h-.11s-.11.03-.11.03c-8.76,1.57-16.06,4.79-22.01,8.72-8.94,5.91-14.85,13.38-18.55,19.37-3.7,5.99-5.2,10.53-5.27,10.73l-.19.58v30.88h3.83l-1.49-3.52c-28.33,11.99-52.39,31.98-69.41,57.15-11.22,16.6-19.34,35.48-23.58,55.77l3.74.78v-3.83h-3.08l-1.02,3.79c-1.73,9.37-3.02,18.36-3.02,28.21v.05s0-.03,0-.03c0,.7.03,1.29.03,1.78l3.83-.04-3.83-.04c0,.49-.03,1.08-.03,1.78,0,3.17.1,6.32.29,9.43l3.82-.23v-3.83h-20.98c-7.29,0-13.96,2.16-19.01,5.84-2.52,1.85-4.64,4.09-6.14,6.69C.88,235.26,0,238.23,0,241.33v54.73c0,3.1.88,6.07,2.39,8.66,2.27,3.9,5.88,7,10.22,9.15,4.35,2.15,9.47,3.37,14.94,3.37h59.48v-3.83l-2.86,2.54c15.49,17.45,34.78,31.46,56.61,40.7,18.88,7.99,39.66,12.4,61.41,12.4h.05s-.05-3.77-.05-3.77l-.37,3.75c.27.02.41.02.41.02l-.05-3.77-.37,3.75.18.02h.24s-.03-2.98-.03-2.98v2.98h.03s-.03-2.98-.03-2.98v2.98c32.63,0,63.04-9.95,88.21-26.95,11.02-7.44,21.04-16.24,29.84-26.15l-2.86-2.54v3.83h69.69c7.29,0,13.96-2.16,19.01-5.84,2.52-1.85,4.64-4.09,6.14-6.69,1.51-2.59,2.39-5.56,2.39-8.66v-54.73c0-3.1-.88-6.07-2.39-8.66-2.27-3.9-5.88-7-10.22-9.15-4.35-2.15-9.47-3.37-14.93-3.37v7.65c5.76,0,10.94,1.75,14.49,4.36,1.78,1.3,3.15,2.8,4.05,4.35.9,1.56,1.35,3.15,1.35,4.82v54.73c0,1.67-.45,3.26-1.35,4.82-1.34,2.33-3.77,4.54-7,6.14-3.22,1.6-7.22,2.58-11.54,2.58h-71.41l-1.14,1.29c-8.37,9.43-17.91,17.81-28.4,24.89-23.95,16.18-52.86,25.64-83.92,25.64h-.05s.03,2.99.03,2.99v-2.99h-.03s.03,2.99.03,2.99v-2.99,3.83l.37-3.81c-.18-.02-.31-.02-.38-.02h-.05s.05,3.67.05,3.67v-3.67h-.05s.05,3.67.05,3.67v-3.67c-20.71,0-40.47-4.2-58.43-11.8-20.77-8.79-39.13-22.12-53.87-38.73l-1.14-1.29H27.54c-5.76,0-10.94-1.75-14.49-4.36-1.78-1.3-3.15-2.8-4.05-4.35-.9-1.56-1.35-3.15-1.35-4.82v-54.73c0-1.67.45-3.26,1.35-4.82,1.34-2.33,3.77-4.54,7-6.14,3.22-1.6,7.22-2.58,11.54-2.58h25.04l-.24-4.05c-.18-2.98-.28-5.97-.28-8.98,0-.46.02-1.03.03-1.7v-.04s0-.04,0-.04c0-.67-.03-1.23-.03-1.7v-.02h0s-2.69,0-2.69,0h2.69s0-.02,0-.02l-2.69.02h2.69c0-9.39.87-18.57,2.52-27.49l-3.76-.7v3.83h3.81l.64-3.04c4.04-19.31,11.76-37.27,22.43-53.06,16.19-23.96,39.1-42.99,66.05-54.39l2.33-.99v-32.81h-3.83l3.63,1.19-2.08-.68,2.07.69h0s-2.08-.69-2.08-.69l2.07.69.03-.07c.28-.81,2.93-8.04,9.17-15.58,3.12-3.77,7.13-7.62,12.17-10.86,5.05-3.23,11.14-5.86,18.54-7.18l-.67-3.77.46,3.8-.15-1.27.15,1.27h0s-.15-1.27-.15-1.27l.15,1.27s2.47-.29,6.33-.29c5.82,0,14.88.67,23.78,3.82,4.45,1.57,8.86,3.76,12.86,6.75,4,3,7.6,6.79,10.48,11.68l.38.64,7.59,5.82.61,33.03,2.55.86c12.85,4.33,24.94,10.34,35.95,17.78,23.96,16.19,42.99,39.1,54.39,66.05,3.72,8.78,6.61,18,8.61,27.55l.64,3.04h3.78l-.68-3.83-3.08.7c1.65,8.92,2.53,18.1,2.53,27.48v.02h.84s-.84,0-.84,0h0s.84,0,.84,0h-.84c0,.51-.02,1.07-.02,1.7v.04s0,.04,0,.04c0,.62.02,1.19.02,1.7,0,3.01-.1,6-.28,8.98l-.24,4.05h35.27v-3.83Zm-24.43,40.51v-3.83h-3.82l-1.75-3.42h0s-3.18-6.23-3.18-6.23l-3.26-6.41-.27-.54-3.41-6.71-3.68,7.24-6.46,12.69-2.79,5.46,3.41,1.74v-3.83h-6.16v3.83l3.41,1.73,2.8-5.51h0s2.56-5.02,2.56-5.02l3.9-7.65,1.71-3.35,2.42-4.74.45-.89,1.86-3.65-3.41-1.74-3.41,1.74,4.73,9.28.83,1.64h0s.89,1.75.89,1.75l6.44,12.63h0s2.8,5.5,2.8,5.5l3.41-1.73v-3.83,3.83l3.41-1.73-2.8-5.51h0s-6.44-12.63-6.44-12.63l-.89-1.75h0s-.83-1.64-.83-1.64l-8.14-15.96-5.27,10.33-.45.89-2.42,4.75-1.71,3.35-3.9,7.65-2.56,5.02h0s-5.62,11.07-5.62,11.07h14.74l3.9-7.63,6.43-12.62.27-.54-3.41-1.73-3.41,1.73.27.54,3.26,6.41,3.18,6.24,3.88,7.6h14.74l-2.83-5.56-3.41,1.73Zm-63.76,0h3.83v-26.96h15.6c.87,0,1.65.24,2.34.66.68.42,1.25,1.02,1.63,1.73.34.64.53,1.34.53,2.11,0,.81-.23,1.56-.66,2.28l-.04.06-.16.3-1.7,3.08,2.93,1.95c.81.54,1.48,1.27,1.95,2.12.47.85.73,1.81.73,2.87,0,1.66-.66,3.14-1.75,4.23-1.1,1.09-2.57,1.75-4.23,1.75h-20.97v3.83h3.83v-3.83h-3.83v3.83h3.83-3.83v3.83h0v-3.83h-3.83v3.83h24.79c3.75,0,7.19-1.53,9.64-3.99,2.46-2.46,4-5.89,3.99-9.64,0-2.36-.61-4.61-1.67-6.54-1.07-1.94-2.58-3.59-4.41-4.81l-2.12,3.18,3.35,1.85.13-.24-3.35-1.85,3.28,1.97c1.07-1.77,1.75-3.91,1.75-6.22,0-2.06-.52-4.01-1.43-5.71-1.02-1.91-2.53-3.52-4.38-4.65-1.84-1.13-4.03-1.79-6.34-1.78h-23.25v38.44h3.83v-3.83Zm-9.9-18.34h3.83v-9.03l-7.79,5.99-3.77,2.9h0s-2.16,1.67-2.16,1.67l-2.16-1.67-3.84-2.96-7.72-5.94v23.55h-1.68v3.83h3.83v-30.8h-3.83l-2.34,3.03,5.26,4.06.24.19,12.23,9.43,12.23-9.43.08-.07.08-.06,5.34-4.12-2.34-3.03h-3.83v26.97h-1.68v3.83h3.83v-18.35h-7.65v22.17h13.16v-42.4l-11.59,8.93-.08.07h0s-7.56,5.82-7.56,5.82l-7.56-5.83-.24-.19-11.42-8.8v42.4h13.16v-23.43h-3.83l-2.33,3.03,1.56,1.2,3.84,2.95h0s6.84,5.28,6.84,5.28l6.84-5.28,3.76-2.9,1.63-1.25-2.33-3.03h-3.83v1.26h3.83Zm-28.6,2.95h-3.83c0,3.21-1.29,6.07-3.39,8.18-2.11,2.1-4.97,3.39-8.18,3.39-3.21,0-6.07-1.29-8.18-3.39-2.1-2.11-3.39-4.97-3.39-8.18,0-.81.08-1.6.24-2.36h0c.52-2.49,1.84-4.69,3.71-6.32,2.06-1.8,4.69-2.88,7.62-2.88,2.98,0,5.65,1.12,7.72,2.98,1.83,1.65,3.12,3.83,3.62,6.3h0c.15.74.23,1.51.23,2.29h7.65c0-1.3-.13-2.57-.38-3.79h0c-.83-4.15-3-7.79-6-10.48-3.38-3.05-7.9-4.95-12.84-4.94-4.85,0-9.3,1.82-12.66,4.78-3.06,2.69-5.28,6.34-6.15,10.51h0c-.26,1.26-.4,2.58-.4,3.92,0,5.29,2.16,10.12,5.63,13.59,3.47,3.47,8.29,5.63,13.59,5.63,5.29,0,10.12-2.16,13.59-5.63,3.47-3.47,5.63-8.29,5.63-13.59h-3.83Zm-32.99,5.58h-3.83c0,1.67-.66,3.14-1.75,4.23-1.1,1.09-2.57,1.75-4.23,1.75h-20.97v3.83h3.83v-3.83h0v-26.96h-3.83v3.83h19.42c.8,0,1.52.2,2.16.55.64.35,1.19.87,1.6,1.48h0c.47.72.73,1.54.74,2.46,0,.73-.19,1.41-.56,2.1-.08.15-.13.25-.16.31l-.03.05.5.29-.48-.31-.02.02.5.29-.48-.31-2.03,3.16,3.13,2.09c.81.54,1.48,1.27,1.95,2.12.47.85.73,1.81.73,2.87h3.83s3.83,0,3.83,0c0-2.36-.61-4.6-1.67-6.54-1.07-1.94-2.58-3.59-4.41-4.81l-2.12,3.18,3.22,2.07c.28-.45.41-.74.47-.83.9-1.65,1.48-3.61,1.47-5.73,0-2.45-.74-4.75-1.99-6.65h0c-1.08-1.65-2.55-3.02-4.29-3.98-1.74-.96-3.75-1.51-5.86-1.51h-23.25v38.44h3.83v-3.83h-3.83v3.83h24.79c3.75,0,7.19-1.53,9.64-3.99,2.46-2.46,4-5.89,3.99-9.64h-3.83Zm-56.62-5.58h-3.83c0,2.85-1.02,5.43-2.72,7.42h-.01s-.02.03-.02.03c-.23.27-.44.51-.65.71h-.01s0,.01,0,.01c-2.1,2.1-4.95,3.39-8.15,3.39h-11.57v-26.96h-3.83v3.83h15.4c2.74,0,5.23.95,7.22,2.54,2.02,1.62,3.48,3.9,4.05,6.5.18.83.28,1.66.28,2.51h7.65c0-1.45-.17-2.84-.46-4.16-.96-4.35-3.39-8.14-6.74-10.82-3.28-2.63-7.47-4.23-12.01-4.22h-19.22v38.43h19.22c5.29,0,10.12-2.16,13.58-5.65h-.01c.42-.41.79-.82,1.11-1.21l-2.93-2.45,2.91,2.49c2.87-3.35,4.56-7.71,4.56-12.4h-3.83Zm-81.99,9.9l-3.41,1.73,2.8,5.51,3.41-1.73v-3.83h-3.82l-1.75-3.42h0s-10.12-19.88-10.12-19.88l-7.09,13.92-3.03,5.96-1.05,2.05-.7,1.36h-3.82v3.83l3.41,1.73,2.8-5.51,2.56-5.02,4.35-8.54h0s.06-.13.06-.13l4.47-8.77,1.44-2.83-3.41-1.74-3.41,1.74,1.45,2.85,4.55,8.92,6.89,13.52h0s3.41-1.74,3.41-1.74l3.41-1.74-6.89-13.53-4.55-8.92-4.86-9.54-4.85,9.52-4.47,8.77-.06.13-4.35,8.53-2.56,5.03-5.63,11.07h14.74l2.83-5.53,1.06-2.06,3.04-5.97.27-.53,3.32,6.53,3.87,7.56h14.74l-5.62-11.06h0s-3.41,1.73-3.41,1.73Zm63.63-203.1l3.34,1.86c1.27-2.29,2.81-5.34,4.06-7.85,1.24-2.51,2.18-4.46,2.18-4.47l-3.45-1.65-3.75.78c.3,1.45.86,2.72,1.53,3.74,1,1.54,2.2,2.56,3.15,3.2.96.65,1.69.94,1.89,1.02l8.94,3.41-4.13-8.63c-.06-.14-.09-.24-.09-.45,0-.22.05-.55.19-.93.19-.57.56-1.21.88-1.66.16-.23.3-.41.39-.52l.1-.11h.01s-1.47-1.33-1.47-1.33l1.45,1.34.02-.02-1.47-1.32,1.45,1.34-2.81-2.6-3.81-.32c-.04.42-.05.84-.05,1.24,0,1.76.32,3.35.81,4.71.74,2.04,1.83,3.54,2.74,4.55.92,1.01,1.67,1.55,1.85,1.68l3.63,2.51,1.97-3.94c1.12-2.23,2.19-3.15,2.95-3.61.76-.45,1.31-.49,1.59-.5h.16s.21-1.55.21-1.55l-.38,1.52c.12.03.17.04.17.04l.21-1.56-.38,1.52.93-3.71-1.68,3.44c8.83,4.32,17.12,5.34,22.99,5.34.7,0,1.36-.01,1.99-.04l-.15-3.82-1.81-3.37,1.81,3.37-1.8-3.37h0s1.81,3.37,1.81,3.37l-1.8-3.37,1.8,3.37-1.71-3.42-.06.03h-.03c-.06.05-2.2,1.18-5.19,2.27-1.49.55-3.2,1.08-4.93,1.47-1.74.39-3.51.63-5.11.63-.47,0-.92-.02-1.36-.06l-1.86,7.32c.07.03,2.71,1.16,6.28,2.31,1.79.57,3.81,1.15,5.9,1.6,2.09.44,4.23.76,6.34.77,1.46,0,2.91-.15,4.38-.63h0s-.7-2.09-.7-2.09v2.2c.26,0,.51-.05.7-.11l-.7-2.09v2.2-2.07l-1.06,1.8c.19.12.6.28,1.06.27v-2.07l-1.06,1.8.61-1.04-.76.93.15.1.61-1.04-.76.93.23-.28-.26.26.03.03.23-.28-.26.26s.16.18.33.48c.18.31.39.74.6,1.29.64,1.59,1.27,4.03,1.73,6.86.47,2.84.78,6.09.88,9.42v.02c0,.19.01.39.02.58h0c.02.64.02,1.29.02,1.93,0,3.05-.18,6.11-.56,8.93-.38,2.81-.97,5.38-1.74,7.42l3.58,1.33-3.42-1.71-2.39,4.79.68,21.71-9.43-4.98-3.81,6.63,1.77,1.1,8.78,12.85-.03.02,2.27,3.08-.11-3.82c-.55.02-1.08.03-1.6.03-5.22,0-9.22-.58-11.87-1.14-1.32-.28-2.31-.56-2.94-.75-.32-.1-.54-.18-.68-.23l-.14-.05v.04s0-.04,0-.04h0s-.01.04-.01.04l.02-.04-3.65-1.47-2.83,7.6,6.49,3.83,1.31-1.52-2.9-2.49-.99,3.7c6.74,1.8,12.96,2.42,18.36,2.42,1.12,0,2.21-.03,3.26-.07l-.17-3.82-3.39,1.78c.14.26.25.53.32.77.07.23.09.42.09.56,0,.11-.01.18-.04.26-.03.08-.07.17-.19.33l-1.72,2.18,1.54,2.31,1.09-.72-1.09.71h0s1.09-.71,1.09-.71l-1.09.71s.97,1.49,1.86,3.7c.9,2.21,1.74,5.15,1.73,8.14,0,1.66-.25,3.33-.85,4.98-.61,1.65-1.56,3.29-3.1,4.92l2.79,2.62-.29-3.81c-.58.04-1.21.08-1.89.11l.17,3.82.17-3.82c-4.13-.18-6.77-.77-8.24-1.24-.76-.24-1.21-.44-1.42-.54l-1.68,3.44,1.75-3.4-.12-.06-1.75,3.4,3.41-1.73c-.33-.65-.95-1.86-1.62-3.12l-.04-.08.04.08c-.49-.92-1-1.85-1.48-2.66-.24-.41-.49-.8-.77-1.2v-.02c-.14-.18-.35-.46-.61-.75l-.02-.02-.02-.02c-.11-.12-.35-.37-.62-.59l-.07-.06-.06-.05c-.05-.04-.44-.34-.89-.57l-1.76,3.4,2.15-3.16s-.11-.08-.23-.16l-.03-.02h.01c-.35-.25-.97-.71-1.74-1.3-.78-.59-1.72-1.32-2.75-2.12-3.11-2.41-7.1-5.53-10.31-8.05-1.6-1.26-3.01-2.36-4.02-3.16h0c-.5-.39-.91-.71-1.18-.92l-2.37,3,3.67-1.1-1.15-3.85-5.44-26.08-3.74.78-1.58,3.48,4.73,2.14,3.37-6.86c-.68-.36-1.3-.83-1.9-1.44-1.04-1.05-1.97-2.53-2.73-4.31-1.14-2.65-1.88-5.92-2.28-9.03-.41-3.11-.51-6.06-.51-8.13,0-.94.02-1.7.04-2.22,0-.26.02-.46.03-.59v-.14s.01-.03.01-.03h0s0,0,0,0h0s0-.02,0-.02l-3.82-.23,2.7,2.7h0s2.22-2.22,2.22-2.22l-1.01-1.52.35-4.86.39-5.42v-26.78h-3.83l3.34,1.86-3.34-1.86h-3.83v26.5l-.37,5.15-.54,7.47.73,1.09,3.18-2.12-2.7-2.71h0s-1.03,1.03-1.03,1.03l-.09,1.45h.15s-.15,0-.15,0h0s.15,0,.15,0h-.15c-.01.21-.09,1.5-.09,3.47,0,3.54.24,9.23,1.66,14.9.72,2.84,1.73,5.69,3.28,8.28.77,1.3,1.68,2.53,2.77,3.63,1.08,1.11,2.34,2.09,3.78,2.85l1.79-3.38,1.58-3.48-11.59-5.26,7.04,33.78,1.59,5.32.95.75c.28.22.68.54,1.18.93l.13.1-.13-.1c1.01.79,2.42,1.9,4.03,3.16,3.21,2.52,7.21,5.65,10.35,8.08,1.04.81,2,1.54,2.79,2.15.8.61,1.43,1.09,1.88,1.42h-.01c.21.14.36.25.46.32l.19.13.21.11.91-1.76-1.12,1.63.21.12.91-1.76-1.12,1.63.84-1.23-.89,1.2.05.03.84-1.23-.89,1.2h0s.03.03.03.03l2.31-3.05-2.44,2.94.83-1-.91.93.08.07.83-1-.91.93.84-.87-.87.84.03.03.84-.87-.87.84.32-.31-.32.3h0s.32-.3.32-.3l-.32.3h0s2.8-2.59,2.8-2.59l-2.84,2.56h0s.05.08.05.08v-.02c.09.15.24.38.43.7.37.63.85,1.49,1.31,2.35h0c.63,1.19,1.23,2.36,1.55,2.98l.56,1.11,1.26.65.03.02c.56.27,1.38.62,2.49.97,2.18.68,5.48,1.37,10.19,1.58h.17s.17,0,.17,0c.76-.03,1.47-.08,2.13-.13l1.48-.11,1.02-1.08c2.23-2.36,3.77-4.94,4.71-7.54.95-2.59,1.32-5.19,1.32-7.61,0-4.51-1.23-8.44-2.41-11.29-1.19-2.85-2.36-4.63-2.46-4.77l-3.18,2.12,3,2.37c.64-.81,1.13-1.71,1.44-2.63.31-.92.44-1.84.44-2.7,0-1.01-.17-1.92-.41-2.73-.24-.81-.56-1.52-.88-2.14l-1.13-2.15-2.43.11c-.94.04-1.91.07-2.91.07-4.82,0-10.37-.55-16.39-2.16l-2.33-.62-2.87,3.35,2.9,2.49,3.58,1.34,1.46-3.92-3.58-1.34-1.43,3.55c.37.15,6.91,2.73,18.49,2.73.63,0,1.24-.01,1.83-.03l1.19-.04,6.94-5.11-13.86-20.28-3.13-1.95-2.02,3.25-1.79,3.38,21.06,11.12-1.03-32.92,1.62-3.24.07-.19c1.03-2.76,1.71-5.83,2.15-9.06.44-3.22.63-6.61.64-9.96,0-.71,0-1.42-.03-2.13h0c0-.23-.01-.44-.02-.66v.02c-.12-3.65-.46-7.21-.98-10.42-.53-3.22-1.23-6.07-2.17-8.45-.57-1.42-1.2-2.68-2.15-3.82-.48-.57-1.06-1.12-1.83-1.58-.76-.46-1.77-.79-2.83-.79-.6,0-1.19.1-1.73.28h0c-.36.12-1.06.24-1.96.24-1.31,0-3-.22-4.74-.6-2.62-.56-5.36-1.43-7.4-2.16-1.02-.37-1.88-.69-2.47-.93-.3-.12-.52-.21-.68-.27l-.17-.07-.04-.02h0s-1.51,3.51-1.51,3.51l-.35,3.81c.69.06,1.38.09,2.07.09,2.39,0,4.73-.35,6.91-.85,3.27-.75,6.2-1.83,8.34-2.74,2.15-.91,3.5-1.63,3.59-1.67l-1.96-7.2c-.53.02-1.1.03-1.69.03-5,0-12.08-.87-19.63-4.56l-.36-.18-.39-.1c-.24-.06-.89-.2-1.85-.2-1.36,0-3.42.31-5.54,1.59-2.13,1.27-4.21,3.46-5.84,6.74l3.42,1.71,2.18-3.15-1.21,1.74,1.26-1.71-.05-.04-1.21,1.74,1.26-1.71h0s-.65-.51-1.17-1.31c-.52-.81-.99-1.86-.99-3.37,0-.19,0-.4.03-.61l.92-11.09-7.55,8.17c-.12.13-.91.99-1.76,2.4-.42.71-.86,1.56-1.21,2.55-.35,1-.61,2.15-.62,3.45,0,1.19.24,2.5.84,3.75l3.45-1.65,1.36-3.57-.87,2.29.94-2.26-.07-.03-.87,2.29.94-2.26-.28.68.29-.67h-.01s-.28.67-.28.67l.29-.67-.07-.03c-.18-.09-.61-.35-.98-.74-.37-.4-.68-.87-.84-1.63l-2.31-11.07-4.89,10.2s-.06.12-.16.33c-.37.76-1.32,2.74-2.45,4.98-1.12,2.25-2.42,4.78-3.42,6.59l-.48.87v.99h3.83Zm77.39-18.97l2.99-2.38c-.11-.14-1.25-1.55-3.33-3.38-2.08-1.83-5.11-4.08-9.03-5.82-3.45-1.54-7.62-2.67-12.34-2.67-2.46,0-5.06.31-7.76,1.01l.96,3.7,1.93,3.3h0c.14-.08,1.32-.72,3.06-1.32,1.74-.6,4.03-1.15,6.39-1.15,1.54,0,3.11.23,4.64.78,1.53.56,3.04,1.45,4.55,2.89,1.55,1.5,3.09,3.6,4.46,6.62l3.48-1.59,2.99-2.38-2.99,2.38,3.48-1.59c-1.71-3.76-3.79-6.71-6.11-8.95-2.25-2.18-4.75-3.67-7.24-4.58-2.49-.91-4.97-1.25-7.26-1.25-3.74,0-6.98.88-9.34,1.72-2.35.85-3.82,1.7-3.97,1.79l2.89,7.01c2.08-.54,4.02-.76,5.85-.76,3.49,0,6.58.83,9.24,2.01,3,1.33,5.43,3.13,7.08,4.57.82.72,1.45,1.36,1.86,1.79.2.22.35.39.44.49l.09.11v.02s1.33-1.07,1.33-1.07l-1.32,1.05h0s1.31-1.05,1.31-1.05l-1.32,1.05,6.47-3.97-3.48,1.59Zm11.54,28.94l-3.81.38c.16,1.61.23,3.2.23,4.75,0,.9-.02,1.79-.07,2.66-.07,1.43-.2,2.79-.36,4.09-.24,1.96-.54,3.71-.84,5.2-.22,1.1-.44,2.07-.62,2.83-.17.69-.35.88-.45.99-.11.1-.21.18-.5.26-.22.06-.53.1-.88.1-.49,0-1.02-.08-1.4-.17-.19-.04-.34-.08-.43-.11l-.08-.03h0s-.77,2.26-.77,2.26l.8-2.25h-.03s-.77,2.25-.77,2.25l.8-2.25-1.28,3.6,3.19,2.12c1-1.5,1.83-3.04,2.56-4.59.7-1.5,1.29-3.02,1.78-4.53.46-1.4.85-2.82,1.17-4.24.99-4.42,1.34-8.82,1.34-12.91,0-.53,0-1.05-.02-1.56-.23-10.3-2.53-18.26-2.58-18.45l-3.68,1.06-3.09,2.25c1.97,2.71,3.36,5.6,4.33,8.58.87,2.67,1.38,5.4,1.65,8.09l3.81-.38,3.81-.38c-.31-3.14-.92-6.41-1.99-9.69-1.18-3.65-2.93-7.3-5.42-10.72l-6.77,3.31,1.42-.41-1.42.41h0s1.42-.41,1.42-.41l-1.42.41s2.1,7.41,2.29,16.5c0,.46.02.93.02,1.4,0,3.64-.32,7.5-1.16,11.23-.27,1.18-.59,2.37-.98,3.54-.42,1.27-.89,2.49-1.44,3.66-.6,1.27-1.26,2.48-2.01,3.61l-2.71,4.08,4.61,1.64c.11.04.61.21,1.39.39.77.17,1.82.35,3.06.35.88,0,1.86-.09,2.91-.38,1.29-.35,2.71-1.04,3.89-2.23,1.19-1.18,2.05-2.79,2.48-4.61.2-.84.44-1.9.69-3.1.33-1.65.67-3.6.94-5.8.17-1.44.32-2.98.4-4.62.05-.99.08-2,.08-3.04,0-1.77-.08-3.62-.27-5.5l-3.81.38Zm74,72.61l-3.17,2.14c9.65,14.29,16.57,30.53,20.06,48.03h0c.06.27.1.46.12.54l3.75-.73,3.61-1.27c-.07-.2-.14-.39-.2-.57h0c-1.59-4.46-2.99-8.29-4.05-11.05-.53-1.39-.98-2.5-1.35-3.35-.19-.43-.35-.78-.54-1.14-.1-.19-.2-.37-.39-.64-.1-.14-.22-.3-.45-.54-.12-.12-.26-.26-.48-.42-.22-.16-.52-.36-.99-.53l-.2-.07c-.24-.08-.65-.21-1.26-.41-9.08-2.94-60.94-19.44-60.95-19.44l-1.16,3.65,2.64-2.77-14.59-13.94-8.26-2.86.72-3.22.73-2.44-3.67-1.09,2.03,3.24.04-.02.98-.61.48-1.05-1.53-.69,1.11,1.28c.12-.1.3-.31.42-.58l-1.53-.69,1.11,1.28h0c1.86-1.63,3.7-3.27,5.41-5.21,1.7-1.93,3.26-4.16,4.44-6.84,1.98-4.49,2.9-9.09,3.74-13.36l-1.53-.3,1.4.68s.09-.21.12-.38l-1.53-.3,1.4.68.23-.48.09-.52c.27-1.56.54-3.12.76-4.64.18-1.19.34-2.34.47-3.45l-3.8-.45-3.66,1.1.02.06,7.44-.46c.18-1.09.3-2.17.38-3.22l-3.81-.28-1.62,3.46c21.82,10.22,40.44,26.23,53.82,46.04l3.17-2.14,3.17-2.14c-14.15-20.95-33.83-37.88-56.92-48.69l-5.03-2.35-.41,5.53c-.06.87-.16,1.72-.29,2.51l3.77.64,3.66-1.1-.02-.06-7.46.64c-.12,1.02-.27,2.09-.44,3.22-.21,1.43-.46,2.93-.73,4.44l3.77.66-3.45-1.66c-.18.37-.38.89-.5,1.48-.82,4.23-1.68,8.25-3.22,11.73-.83,1.86-1.87,3.39-3.18,4.87-1.31,1.49-2.89,2.92-4.7,4.5h0c-.63.55-1.17,1.25-1.52,2.02l3.48,1.58-2.03-3.24-.04.02-1.22.77-1.22,4.09-2.26,10.15,13.14,4.54,14.02,13.39.84.27s.95.3,2.62.83c5.84,1.86,20.45,6.51,33.75,10.75,6.65,2.12,12.97,4.14,17.7,5.65,2.36.76,4.33,1.39,5.74,1.84.7.23,1.27.41,1.67.54.2.07.36.12.47.16l.13.04h.03s.48-1.39.48-1.39l-.51,1.39h.02s.48-1.39.48-1.39l-.51,1.39,1.29-3.52-2.23,3.01c.21.15.49.34.95.51l1.29-3.52-2.23,3.01,2.12-2.86-2.77,2.23c.11.13.25.32.65.62l2.12-2.86-2.77,2.23,1.91-1.54-2.14,1.21s.04.08.23.33l1.91-1.54-2.14,1.21.08-.04-.08.04h0s.08-.04.08-.04l-.08.04s.1.21.22.46c.41.92,1.14,2.77,2.04,5.2.91,2.43,2.01,5.47,3.23,8.88h0c.07.19.13.37.19.54l7.36-2.01c-.06-.29-.1-.47-.12-.56h0c-3.69-18.53-11.02-35.72-21.22-50.83l-3.17,2.14Zm7.04,49.51l3.55-1.42-4.26-10.65-3.37,1.05c-2.28.71-4.42,1.88-6.47,3.32-2.05,1.45-4.01,3.18-5.91,5.1-3.17,3.21-6.17,6.97-8.94,10.84-4.15,5.8-7.77,11.87-10.47,16.72-2.7,4.85-4.48,8.47-4.91,9.36h0c-.06.13-.11.22-.11.23l3.45,1.65,3.53,1.48.09-.21v-.02s.02-.02.02-.02c6.98-17.15,14.38-27.98,20.5-34.76,4.24-4.69,7.87-7.46,10.36-9.03,1.25-.79,2.21-1.28,2.83-1.56.31-.14.53-.23.65-.28l.12-.04h0s-.78-2.36-.78-2.36l.74,2.37h.04s-.78-2.37-.78-2.37l.74,2.37-1.14-3.65-3.64,1.17,3.83,11.86,11.61,36.01.57,1.77.26.81,1.43,4.43,3.64-1.17,3.55-1.42-1.49-3.74h0s-.28-.69-.28-.69h0s-1.03-2.58-1.03-2.58l-14.38-35.99-3.55,1.42-3.55,1.42,14.38,35.99,1.03,2.59h0s.28.69.28.69h0s1.49,3.73,1.49,3.73l7.19-2.59-1.43-4.43-.26-.81-.57-1.77-11.61-36.01-4.99-15.47-3.62,1.13c-.59.18-7.94,2.67-17.33,13.07-6.79,7.52-14.65,19.15-21.91,37.01l3.54,1.44-3.53-1.48-.09.21,6.98,3.13s.04-.08.1-.2h0c.51-1.05,3.4-6.93,7.59-13.98,2.1-3.52,4.52-7.34,7.13-10.98,2.6-3.64,5.39-7.11,8.16-9.91,1.66-1.68,3.31-3.12,4.88-4.23,1.57-1.11,3.05-1.87,4.33-2.26l-1.13-3.65-3.55,1.42,2.94,7.37,3.55-1.42Zm-190.68,36.33l3.4-1.74s-.08-.15-.2-.38h0c-.78-1.48-3.91-7.37-8.38-14.38-4.49-7.02-10.27-15.15-16.59-21.23-1.9-1.82-3.85-3.47-5.88-4.84-2.03-1.37-4.13-2.48-6.35-3.17l-3.04-.94-5.27,10.02-18.16,34.54-2.59,4.93,3.39,1.78,3.51,1.52,2.13-4.93,14.91-34.52,5.71-13.22-3.51-1.52-1.14,3.65.72-2.33-.76,2.31h.04s.72-2.31.72-2.31l-.76,2.31.13-.39-.13.38h0s.13-.38.13-.38l-.13.38s6.34,2.12,14.89,11.95c5.92,6.82,12.91,17.38,19.53,33.6h0c.08.19.13.3.15.34l3.55-1.44,3.4-1.74-3.4,1.74,3.55-1.44c-.08-.2-.13-.31-.15-.35h0c-6.89-16.9-14.3-28.21-20.84-35.73-9.87-11.38-17.73-14.04-18.35-14.22l-3.29-1.02-7.07,16.38-14.91,34.52-2.13,4.93,6.9,3.3,2.59-4.93,18.16-34.54,3.79-7.21-3.39-1.78-1.13,3.65c1.29.4,2.76,1.14,4.33,2.2,1.56,1.06,3.21,2.43,4.87,4.02,5.56,5.32,11.15,13.09,15.44,19.83,4.3,6.74,7.35,12.47,8.05,13.82h0c.05.11.09.19.12.24l.03.06v.02s6.96-3.18,6.96-3.18l-3.55,1.44Zm7.85-60.87l-3.62,1.24,8.8,25.63,3.86,11.26,7.25-10.33.25-.35,5.92-8.43-3.13-2.2-3.33,1.88c.2.35,2.18,3.73,8.17,9.56,5.4,5.26,14.07,12.53,27.68,21.41l2.09-3.2,1.92-3.31s-.08-.05-.24-.14c-1.21-.7-6.78-3.97-13.15-7.99-3.18-2.01-6.57-4.21-9.69-6.36-3.12-2.15-5.99-4.26-8.09-6.04-.99-.83-1.82-1.6-2.38-2.2l-2.83-3.01-5.1,5.59-3.4,3.73-4.6,5.04,2.83,2.58,3.7-.99-2.33-8.71-6.85-25.64-3.7.99-3.62,1.24,3.62-1.24-3.7.99,6.85,25.64,4.13,15.47,9.32-10.21,3.4-3.73,2.31-2.53-2.83-2.58-2.79,2.62c.87.92,1.88,1.85,3.02,2.81,2.58,2.18,5.85,4.55,9.34,6.94,10.45,7.14,22.9,14.34,22.94,14.37l4.01-6.51c-13.25-8.65-21.53-15.62-26.52-20.49-2.77-2.69-4.53-4.74-5.57-6.07-.52-.66-.86-1.15-1.06-1.45-.1-.15-.16-.25-.2-.3l-.03-.04-1.48.87,1.49-.84-.02-.03-1.48.87,1.49-.84-2.98-5.28-9.4,13.39-.25.35-2.94,4.18,3.13,2.2,3.62-1.24-1.43-4.16-8.8-25.63-7.31,2.23,3.7-.99Zm115.36,33.34l3.67,1.07,2.46-8.4,7.3-24.94-3.67-1.07-3.72-.89-5.99,24.93-1.14,4.77-2.3-3.32-1.84-2.65-4.06-5.86-3.24,3.45c-.45.48-1.08,1.08-1.83,1.73-2.09,1.83-5.11,4.08-8.43,6.37-3.32,2.3-6.95,4.65-10.34,6.78-3.52,2.21-6.76,4.18-9.13,5.59-1.18.71-2.14,1.27-2.81,1.66-.33.19-.59.35-.76.45-.17.1-.26.15-.26.15l1.92,3.31,2.09,3.2c5.16-3.37,9.59-6.49,13.41-9.35,6.67-5,11.45-9.21,14.83-12.53,5.43-5.34,7.23-8.39,7.43-8.74l-3.33-1.89-3.28,1.97,4.06,6.73.66,1.09,9.53,15.82,2.45-8.37-3.67-1.07,3.28-1.97-5.03-8.35-.66-1.09-7.43-12.34-3.23,5.69,1.66.94-1.65-.98-.02.03,1.66.94-1.65-.98s-1.47,2.48-6.15,7.09c-3.1,3.05-7.62,7.04-14.05,11.86-3.68,2.76-7.98,5.79-13.01,9.07l4.01,6.51s6.04-3.49,13.2-8c3.45-2.17,7.16-4.58,10.61-6.96,3.46-2.39,6.64-4.74,9.11-6.9.87-.76,1.67-1.5,2.38-2.26l-2.79-2.62-3.14,2.18,1.36,1.97,1.84,2.65,12.04,17.38,5.14-21.4,5.99-24.93-7.39-1.97-7.3,24.94-2.46,8.4,3.67,1.07,3.28-1.97-3.28,1.97Zm16.23-33.47l-1.04,3.68,32.37,9.14,1.04-3.68.11-3.82h-.08c-.9-.03-9.1-.31-16.88-1.34-1.94-.25-3.86-.55-5.61-.9-1.31-.26-2.53-.55-3.59-.85-1.59-.45-2.83-.98-3.35-1.33-.13-.08-.22-.15-.25-.18l-.02-.02-.37.37.42-.31-.05-.06-.37.37.42-.31-1.2.87,1.4-.49c-.07-.19-.15-.31-.19-.38l-1.2.87,1.4-.49-1.84.65h1.95c0-.23-.04-.47-.11-.65l-1.84.65h1.95s-1.64,0-1.64,0l1.51.66c.05-.11.13-.36.12-.66h-1.64l1.51.66-.55-.24.51.33.04-.09-.55-.24.51.33.06-.07-2.93-2.46-1.04,3.68,1.04-3.68-2.93-2.46c-.46.55-.87,1.16-1.18,1.87-.31.71-.51,1.53-.51,2.38,0,.61.1,1.23.29,1.78.36,1.09.99,1.93,1.64,2.57.62.6,1.27,1.06,1.95,1.46,1.28.74,2.66,1.28,4.18,1.75,2.65.82,5.71,1.42,8.87,1.9,4.74.71,9.69,1.13,13.49,1.38,3.8.25,6.43.32,6.46.32l1.15-7.51-34.75-9.82-1.59,1.89,2.93,2.46Zm-61.11-36.8l-2.41,2.97.11-.14-.12.14h0s.11-.14.11-.14l-.12.14s.29.28.61.66c.58.68,1.37,1.74,2.18,2.9,1.22,1.74,2.51,3.73,3.49,5.27.49.77.9,1.43,1.19,1.89.14.23.26.42.33.54.08.12.11.19.11.19l3.27-1.99,3.16-2.15c-.34-.49-.7-.96-1.12-1.47-.73-.88-1.6-1.85-2.52-2.84-2.75-2.95-5.91-6.05-5.93-6.07l-2.68,2.73,3.8.46.32-2.64-3.8-.46-2.41,2.97,2.41-2.97-3.8-.46-.54,4.51,1.35,1.32.08.08c.39.38,2.2,2.18,4.1,4.15.95.99,1.92,2.02,2.73,2.93.41.45.77.88,1.07,1.24.29.36.52.66.63.82l6.43-4.14s-1.63-2.68-3.57-5.61c-.97-1.47-2.02-3.01-3.03-4.36-.5-.67-.99-1.3-1.47-1.87-.49-.57-.94-1.07-1.56-1.58l-5.38-4.36-.83,6.87,3.8.46Zm.71-22.78l-2.54,2.86c3,2.66,6.11,4.29,8.49,5.28,2.38.99,4.05,1.34,4.24,1.38l2.48-7.17-.35.69.4-.66-.06-.03-.35.69.4-.66-.16.26.17-.26h0s-.16.26-.16.26l.17-.26h-.01c-.08-.06-.42-.4-.76-.87-.53-.71-1.08-1.68-1.47-2.45-.2-.38-.35-.72-.46-.94-.05-.11-.09-.2-.12-.26l-.03-.06h0s-1.26.53-1.26.53l1.26-.53h0s-1.26.53-1.26.53l1.26-.53-3.52,1.49-1.84,3.35c2.71,1.49,5.58,1.96,8.17,1.96,2.24,0,4.31-.35,6.09-.78,3.52-.86,5.96-2.09,6.13-2.17l-1.72-3.42-3.63-1.22c-1.18,3.51-2.42,5.93-3.51,7.43-.82,1.13-1.53,1.73-2.07,2.04-.54.31-.89.38-1.31.39-.32,0-.7-.06-1.16-.23-.79-.28-1.8-.91-2.78-1.76-1.48-1.27-2.9-3.01-3.89-4.4-.5-.7-.89-1.3-1.15-1.73-.13-.21-.23-.38-.29-.48l-.07-.12v-.02s-.01,0-.01,0l-1.99,1.12,1.99-1.12h0s-1.99,1.12-1.99,1.12l1.99-1.12-3.34,1.87-2.54,2.86,2.54-2.86-3.34,1.87c.08.14,1.67,2.98,4.29,5.99,1.32,1.51,2.9,3.06,4.81,4.34.96.64,2,1.2,3.15,1.62,1.15.42,2.42.69,3.77.69,1.73,0,3.55-.47,5.19-1.44,1.64-.96,3.09-2.36,4.38-4.14,1.73-2.38,3.22-5.47,4.58-9.49l2.96-8.8-8.3,4.16.99,1.97-.98-1.98h0s.99,1.98.99,1.98l-.98-1.98-.08.04c-.39.19-2.19,1-4.44,1.54-1.35.33-2.85.56-4.28.56-1.68,0-3.21-.31-4.49-1.01l-9.65-5.31,4.28,10.15c.04.09.64,1.53,1.63,3.23.5.85,1.09,1.78,1.81,2.67.37.45.77.89,1.24,1.32.48.43,1.02.84,1.72,1.19l1.71-3.42.76-3.75-.4,1.95.42-1.95h-.02s-.4,1.95-.4,1.95l.42-1.95s-.07-.02-.22-.05c-.5-.13-1.83-.51-3.49-1.28-1.66-.77-3.64-1.92-5.49-3.56l-5.87,4.73,3.34-1.87Zm44.63-18.71l2.26,3.09h.02s-.68-1.04-.68-1.04l.43,1.14c.18-.07.25-.12.25-.12l-.68-1.03.43,1.14-.89-2.4v2.55c.41,0,.71-.09.89-.15l-.89-2.4v2.55s0-3.01,0-3.01l-1.26,2.73c.41.19.88.28,1.26.28v-3.01l-1.26,2.73,1.23-2.67-2.18,1.98c.21.23.54.5.95.69l1.23-2.67-2.18,1.98h0s1.69-1.54,1.69-1.54l-2.1.93c.05.12.16.33.41.61l1.69-1.55-2.1.93.85-.38-.9.24.05.13.85-.38-.9.24s.07.33.08.79c0,.1,0,.2,0,.31,0,.54-.04,1.21-.11,1.94-.16,1.73-.49,3.72-.78,5.24-.15.76-.28,1.41-.38,1.86-.05.23-.09.4-.11.52l-.03.13v.04s3.72.87,3.72.87l3.8.42c.2-1.83.3-3.39.3-4.76,0-1.08-.06-2.03-.19-2.91-.1-.68-.24-1.33-.46-1.96-.17-.48-.38-.95-.66-1.41-.42-.69-1.05-1.39-1.88-1.88-.83-.5-1.8-.73-2.64-.72-.99,0-1.78.25-2.44.54-1.14.51-1.95,1.15-2.69,1.8-1.09.98-1.97,2.02-2.64,2.85-.66.83-1.07,1.43-1.11,1.49l3.16,2.16,3.29,1.95c1.49-2.52,2.72-4.39,3.69-5.68.49-.66.91-1.17,1.24-1.53.33-.36.57-.56.63-.6l-2.25-3.09-2.25-3.09c-.64.47-1.19.99-1.75,1.6-.56.61-1.14,1.32-1.75,2.14-1.19,1.61-2.54,3.67-4.13,6.35l6.45,4.11-.28-.19.28.19h0s-.28-.19-.28-.19l.28.19c.04-.06.84-1.2,1.75-2.18.45-.49.93-.93,1.23-1.14l.17-.11.04-.02-.64-1.36v1.47c.46,0,.64-.11.64-.11l-.64-1.36v1.47-2.48l-1.13,2.2c.38.2.82.28,1.13.28v-2.48l-1.13,2.2,1.07-2.1-1.74,1.6c.15.16.38.35.66.5l1.07-2.1-1.74,1.6,1.24-1.14-1.46.86c.04.06.11.17.22.29l1.24-1.14-1.46.86.61-.36-.65.28.04.08.61-.36-.65.28v.03c.03.07.09.26.13.55.06.41.11,1.01.11,1.8,0,1-.07,2.3-.25,3.92l7.53,1.28s.28-1.19.6-2.86c.32-1.67.68-3.84.88-5.96.08-.89.14-1.77.14-2.65,0-.18,0-.35,0-.53-.02-.75-.08-1.48-.26-2.28-.09-.4-.22-.82-.42-1.27-.2-.45-.48-.95-.93-1.44h0c-.38-.41-.89-.82-1.51-1.1-.62-.29-1.32-.43-1.95-.43-.78,0-1.44.19-1.98.41-.55.23-.99.5-1.4.8l2.26,3.09Zm-6.66,26.55l2.11-3.19-1,1.51,1.69-.69c-.07-.2-.34-.59-.7-.82l-1,1.51,1.69-.69-.75.31.81-.14s-.01-.07-.05-.17l-.75.31.81-.14v-.02s0-.08,0-.08c0-.26.1-.96.39-1.78.29-.83.74-1.81,1.3-2.77.39-.66.69-1.33.91-2.02.22-.69.35-1.41.35-2.15,0-1.13-.34-2.27-.88-3.12-.4-.64-.88-1.13-1.33-1.5-.68-.55-1.31-.84-1.79-1.02-.48-.18-.83-.26-.99-.29l-.75,3.75,2.47,2.92.44-.37-2.47-2.92.98,3.7c.45-.12.74-.14.81-.14h.02s.09-1.12.09-1.12l-.47,1c.23.11.38.12.39.12l.09-1.12-.47,1,.84-1.79-1.38,1.41c.17.17.37.3.54.38l.84-1.79-1.38,1.41,1.33-1.35-1.81.61c.06.18.22.49.48.74l1.33-1.35-1.81.61,1.08-.36-1.13.16.05.2,1.08-.36-1.13.16.47-.07-.47.03v.04s.47-.07.47-.07l-.47.03h.07s-.07,0-.07,0h0s.07,0,.07,0h-.07s0,0,0,0c0,.05-.03.35-.15.74-.18.58-.54,1.36-.98,2.02-.42.66-.94,1.23-1.22,1.45-.93.76-1.69,1.57-2.26,2.53-.57.95-.9,2.08-.9,3.16,0,.67.12,1.31.31,1.84.28.81.68,1.41,1.04,1.85.36.44.7.72.93.91l2.36-3.01,2.11-3.19-2.11,3.19,2.36-3.01-.96,1.23,1.3-.87c-.14-.19-.22-.26-.33-.36l-.96,1.23,1.3-.87-1.48.99,1.69-.58c-.06-.18-.14-.32-.2-.41l-1.48.99,1.69-.58-1.86.64h1.97c0-.23-.04-.46-.11-.64l-1.86.64h1.97s-1.39,0-1.39,0l1.23.72s.17-.35.16-.72h-1.39l1.23.72-.12-.07.12.08h0s-.12-.08-.12-.08l.12.08s.14-.19.49-.48c.76-.62,1.4-1.31,1.99-2.06.87-1.13,1.61-2.37,2.18-3.71.56-1.34.98-2.74,1-4.37,0-.65-.08-1.35-.31-2.09-.17-.55-.44-1.12-.82-1.66-.57-.81-1.42-1.49-2.34-1.89-.92-.4-1.85-.54-2.74-.54-.93,0-1.84.15-2.77.4l-.83.22-7.13,6.05,7.76,1.55.33-1.64-.56,1.58s.09.03.24.06l.33-1.64-.56,1.58.37-1.03-.76.77c.26.24.33.23.39.26l.37-1.03-.76.77,1.28-1.3-1.66.74c.11.25.26.44.38.56l1.28-1.3-1.66.74,1.55-.69h-1.71c0,.17.05.45.16.69l1.55-.69h-1.71s.96,0,.96,0l-.95-.16v.16s.95,0,.95,0l-.95-.16.37.06-.36-.08v.02s.36.06.36.06l-.36-.08v.02c-.02.05-.08.21-.23.47-.79,1.35-1.44,2.74-1.92,4.13-.48,1.4-.8,2.78-.81,4.28,0,.89.12,1.83.52,2.82.39.98,1.14,2.01,2.18,2.68l4.47-6.2-2.36,3.01Zm-12.48,45.93l2,3.26,3.6-2.2,1.33-5.97-3.73-.83-3.81.38c.14,1.43.23,2.95.23,4.55,0,4.22-.59,8.96-2.27,13.94-1.68,4.98-4.44,10.22-8.86,15.48-.82.98-1.69,1.95-2.63,2.92-4.19,4.35-9.6,8.67-16.59,12.78l1.94,3.3,2.09,3.2c8.17-5.34,14.2-11.23,18.62-17.05h0c.16-.21.25-.34.29-.38h0c5.37-7.18,8.29-14.22,9.86-19.97,1.57-5.75,1.79-10.22,1.79-12.35,0-.79-.03-1.26-.04-1.35l-3.81.28,2,3.26-2-3.26-3.81.28h0c0,.07.02.34.02.78,0,1.58-.17,5.38-1.52,10.33-1.35,4.96-3.88,11.08-8.6,17.4h0c-.14.2-.22.3-.24.33h0c-3.9,5.14-9.26,10.4-16.71,15.28l4.03,6.5c7.52-4.42,13.5-9.17,18.22-14.06,1.06-1.1,2.05-2.2,2.97-3.3,5.03-5.98,8.29-12.11,10.26-17.97,1.97-5.86,2.67-11.45,2.67-16.38,0-1.87-.1-3.64-.27-5.31l-7.54-.45-.62,2.8-.83.51-1.99,1.22.17,2.33,3.81-.28Zm2.7-13.3l-3.73-.87-.38,1.63-.04.19h0s-.05.21-.05.21h0s-1.93,8.29-1.93,8.29l3.73.87-2.43-2.95-.07.06h.01s-8.83,7.19-8.83,7.19l-4.91,4-7.82,6.37-.47.38-2.67,2.18-2.35,1.91-.05.04h0s-2.09,1.7-2.09,1.7l-1.99,1.62,2.42,2.97,2.64,2.77,1.73-1.65,1.34-1.28,2.32-2.21,4.95-4.71h0s.01-.01.01-.01l.11-.1,5.55-5.29,6.63-6.31,6.67-6.36,3.02-8.68.89-2.57,2.67-7.68,2.82-8.11-3.61-1.26-3.73-.87-1.96,8.41-2.16,9.27,3.73.87,3.73.87,2.15-9.27,1.96-8.41-7.34-2.12-2.82,8.11-2.67,7.68-.89,2.57-2.41,6.93-5.33,5.08-6.63,6.31-5.66,5.39h0s-.01.01-.01.01h0s-4.95,4.71-4.95,4.71l-2.32,2.21-1.34,1.28-1.73,1.65,5.05,5.74,1.99-1.62,2.25-1.84-.11.09h0s2.35-1.91,2.35-1.91l2.67-2.18.47-.38,7.81-6.37,4.91-4,8.86-7.22.06-.05,1-.82,2.22-9.55h0s.05-.21.05-.21h0s.05-.2.05-.2h0s.37-1.6.37-1.6l-3.73-.87Zm-22.17-94.21l-1.78-3.38c-2.42,1.28-5.21,2.58-8.06,3.59-2.85,1.02-5.77,1.74-8.4,1.94l.29,3.81,1.05,3.68c.14-.04,7.47-2.14,18.04-6.94,2.84-1.29,5.91-2.77,9.14-4.47l-1.78-3.39-2.24-3.1h0c-.11.08-3.41,2.43-8.04,4.87l1.78,3.38,1.78,3.38c5.25-2.77,8.85-5.36,8.95-5.43l-4.01-6.49c-3.09,1.62-6.03,3.04-8.75,4.28-5.06,2.3-9.34,3.94-12.33,5.01-1.5.53-2.68.92-3.47,1.18-.4.13-.7.22-.9.28-.1.03-.17.05-.22.06h-.05s0,.02,0,.02l1.34,7.49c3.58-.27,7.09-1.19,10.4-2.36,3.3-1.18,6.39-2.63,9.06-4.03l-1.78-3.38Zm-34.15,122.4l-3.35,1.85.08.15,3.35-1.85-3.71.95,2.01,7.85,1.33.81c5.84,3.55,11.68,4.72,16.62,4.71,1.28,0,2.5-.08,3.65-.2l-.42-3.8-3.82.23.35,5.89,1,16.86,3.82-.23,1.59-3.48c-3.96-1.8-14.68-7.2-24.24-16.04-4.2-3.88-8.17-8.41-11.29-13.55-3.12-5.14-5.41-10.88-6.3-17.28l-3.79.53-2.12,3.18,28.88,19.27-3.08-10.34-3.67,1.09-2.32,3.04c.34.26.66.5.94.71h0c.33.25.6.45.84.62l.03.02.28.19,2.17-3.15-3.13,2.2.09.13v.02c.19.28.52.85.85,1.47v.03s0-.02,0-.02l3.35-1.85,3.36-1.84c-.39-.71-.76-1.35-1.09-1.88v.02c-.11-.18-.21-.34-.3-.46l-.4-.57-.83-.57-2.17,3.15,2.23-3.11c-.16-.12-.4-.29-.71-.52h0c-.25-.19-.56-.42-.89-.67l-9.34-7.11.38,1.28-18.34-12.23,1.18,8.44c1.05,7.56,3.76,14.32,7.34,20.2,3.58,5.89,8.03,10.93,12.64,15.19,10.5,9.69,21.84,15.35,26.25,17.38l5.78,2.64-1.38-23.21-.59-9.91-4,.45c-.89.1-1.83.16-2.81.16-3.78,0-8.1-.84-12.65-3.6l-1.99,3.27,3.71-.95-1.74-6.81-.32-.57h0s-3.36,1.85-3.36,1.85Zm-35.24-81.57l-3.21,2.07c.57.89,1.19,1.89,1.87,3.04l3.29-1.95,3.15-2.17c-.06-.08-.98-1.43-2.32-2.91h0c-.45-.49-.93-.98-1.46-1.45l-2.54,2.86,2.59-2.82-.18-.16-.06-.05-.05-.04c-.55-.47-1.16-.92-1.91-1.32-.38-.2-.79-.38-1.28-.53-.48-.14-1.04-.25-1.66-.25-.83,0-1.81.22-2.63.71-.62.36-1.13.85-1.52,1.36-.59.77-.93,1.57-1.16,2.37-.23.81-.37,1.64-.44,2.55-.05.59-.07,1.2-.07,1.87,0,1.38.1,2.95.3,4.79l3.8-.42,3.73-.87v-.02c-.06-.24-.6-2.61-.99-5.2-.25-1.62-.43-3.34-.43-4.51,0-.21,0-.4.01-.56l-3.82-.22,3.81.32v-.16s-3.8-.32-3.8-.32l3.79.55v-.02s.02-.13.02-.13v-.13c.02-.17.04-.3.05-.37v-.05s-.64-.18-.64-.18l.63.24.02-.06-.65-.18.63.24v-.02s0,0,0,0l-1.84-.69,1.59,1.14c.21-.3.25-.44.26-.45l-1.84-.69,1.59,1.14v-.02s0,0,0,0l-2.32-1.66,1.39,2.48c.46-.25.76-.58.93-.82l-2.32-1.66,1.39,2.48-1.47-2.63v3.01c.45,0,1.02-.13,1.47-.39l-1.47-2.63v3.01s0-2.52,0-2.52l-.92,2.36c.18.07.49.16.92.16v-2.52l-.92,2.36h0s.47-1.21.47-1.21l-.68,1.11s.08.05.21.1l.47-1.21-.68,1.11.14-.23-.15.22h0s.14-.22.14-.22l-.15.22s.07.05.2.16c.13.11.3.29.51.52h0c.59.65,1.44,1.76,2.48,3.32.16.24.33.5.5.77h0s3.21-2.07,3.21-2.07l3.22-2.07c-.19-.29-.38-.58-.56-.87-1.18-1.76-2.19-3.13-3.16-4.21h0c-.5-.56-.99-1.04-1.53-1.47-.54-.43-1.11-.82-1.88-1.12h0c-.52-.2-1.15-.36-1.87-.36-.74,0-1.58.2-2.27.59-.69.39-1.2.91-1.55,1.4h0c-.39.54-.56.97-.7,1.32h0c-.34.91-.44,1.69-.51,2.47l3.81.3-3.79-.55v.02s-.02.11-.02.11l-.02.28v.05s0,.05,0,.05c-.02.34-.03.67-.03,1.01,0,1.86.24,3.83.52,5.67.47,3.1,1.09,5.75,1.1,5.8l7.53-1.28c-.18-1.63-.25-2.95-.25-3.96,0-.49.02-.9.05-1.25.04-.47.1-.81.15-.98l.04-.12h0s-.9-.39-.9-.39l.79.56c.08-.12.11-.18.11-.18l-.9-.38.79.56-1.82-1.29,1.04,1.95c.39-.21.66-.49.78-.66l-1.82-1.29,1.04,1.95-1.17-2.19v2.48c.32,0,.78-.09,1.17-.3l-1.17-2.19v2.48s0-1.86,0-1.86l-.54,1.79c.1.03.27.07.54.07v-1.86l-.54,1.79.21-.69-.31.65.1.04.21-.69-.31.65s.25.14.53.39l2.48-2.91-2.59,2.82.18.16.03.02.02.02c.29.26.6.56.89.88h0c.47.51.9,1.05,1.21,1.46.15.2.28.37.36.48l.09.12.02.03.23-.16-.23.16h0s.23-.16.23-.16l-.23.16,6.44-4.12c-.73-1.22-1.4-2.3-2.03-3.28h0s-3.22,2.07-3.22,2.07Zm2.01,20.76l2.36,3.01c.31-.25.8-.67,1.3-1.4.25-.37.49-.82.67-1.36.19-.54.31-1.17.31-1.84,0-1.08-.33-2.21-.9-3.16-.57-.96-1.33-1.77-2.26-2.53-.26-.2-.78-.78-1.22-1.47-.36-.55-.67-1.17-.86-1.69-.2-.52-.26-.96-.25-1.02h0s-1.01-.07-1.01-.07l.94.35c.07-.18.07-.28.07-.29l-1.01-.06.94.35-1.85-.69,1.09,1.63c.37-.23.67-.68.76-.94l-1.85-.69,1.09,1.63-.95-1.42.49,1.65c.11-.03.29-.1.47-.22l-.95-1.42.49,1.65-.29-.99.16,1.02.13-.03-.29-.99.16,1.02-.08-.49.05.49h.03s-.08-.49-.08-.49l.05.49v-.06s0,.06,0,.06h0s0-.06,0-.06v.06s.16,0,.16,0h-.15s.05,0,.05,0c.12,0,.35.02.76.12l.98-3.7-2.47,2.92.44.37,2.47-2.92-.75-3.75c-.14.03-.43.09-.83.24-.6.22-1.48.59-2.41,1.49-.46.45-.91,1.04-1.24,1.78-.33.73-.51,1.59-.51,2.43,0,.73.13,1.46.35,2.15.22.69.53,1.36.91,2.02.57.97,1.02,1.94,1.3,2.77.29.83.4,1.52.39,1.78v.08s0,.02,0,.02l1.03.16-.89-.5c-.12.21-.13.34-.14.34l1.03.16-.89-.5,1.66.93-1.04-1.58c-.27.17-.5.44-.61.65l1.66.93-1.04-1.58,2.11,3.19,2.36,3.01-2.36-3.01,2.11,3.19c1.03-.67,1.79-1.69,2.18-2.68.4-.99.52-1.94.52-2.82,0-1.5-.33-2.88-.81-4.28-.48-1.39-1.14-2.78-1.93-4.13-.15-.26-.21-.42-.23-.47v-.02s-.75.18-.75.18h.76c0-.11-.02-.18-.02-.18l-.74.18h.76-1.76l1.48.92c.18-.27.29-.69.28-.92h-1.76l1.48.92-1.44-.89,1.06,1.32c.1-.08.24-.22.37-.43l-1.44-.89,1.06,1.32-.61-.76.35.92s.11-.04.26-.16l-.61-.76.35.92-.55-1.44.3,1.51c.16-.03.2-.05.25-.07l-.55-1.44.3,1.51,7.77-1.55-7.15-6.05-.83-.22c-.95-.25-1.86-.38-2.73-.38-.14,0-.28,0-.41.01h0c-.77.04-1.57.19-2.35.52-.58.25-1.15.61-1.63,1.06-.72.67-1.22,1.51-1.5,2.31-.28.8-.37,1.57-.37,2.27,0,1.35.31,2.53.72,3.67.42,1.13.96,2.19,1.61,3.19.78,1.2,1.67,2.31,2.83,3.27.2.17.34.3.41.38l.08.1.33-.22-.36.18.02.05.33-.22-.36.18,1.39-.68h-1.53c0,.31.09.59.14.68l1.39-.68h-1.53s1.97,0,1.97,0l-1.86-.64c-.06.18-.11.41-.11.64h1.97l-1.86-.64,1.62.56-1.32-1.09c-.08.1-.2.26-.3.54l1.62.56-1.32-1.09,1.21,1-.97-1.23c-.09.07-.15.13-.24.23l1.21,1-.97-1.23,4.47,6.2-2.11-3.19Zm-47.52,62.17l1.04,3.68,32.37-9.14-1.04-3.68-2.93,2.46.06.07.71-.45-.79.26c.04.13.08.19.08.19l.71-.45-.79.26,1.67-.55h-1.76c0,.22.04.42.08.55l1.67-.55h-1.76s1.95,0,1.95,0l-1.86-.61c-.06.18-.1.4-.1.61h1.95l-1.86-.61,1.49.49-1.31-.87c-.05.08-.12.21-.18.38l1.49.49-1.31-.87.76.51-.7-.59-.06.08.76.51-.7-.59.35.29-.33-.3v.02s.33.29.33.29l-.33-.3.07.06-.06-.06h0s.07.06.07.06l-.06-.06s-.15.13-.42.29c-.5.3-1.42.7-2.58,1.05-2.04.64-4.8,1.2-7.73,1.64-4.4.67-9.2,1.08-12.87,1.32-1.84.12-3.39.2-4.49.25-.55.02-.98.04-1.27.05-.15,0-.26,0-.33.01h-.11s.11,3.83.11,3.83l1.04,3.68-1.04-3.68.11,3.82c.07,0,8.43-.23,16.95-1.3,2.13-.27,4.28-.59,6.33-.97,1.54-.29,3.01-.62,4.4-1,2.09-.58,3.95-1.24,5.61-2.26.83-.52,1.63-1.14,2.34-2.05.35-.46.67-.99.89-1.61.23-.61.36-1.3.36-1.99,0-.85-.2-1.68-.51-2.38-.31-.71-.72-1.32-1.18-1.87l-1.59-1.89-34.75,9.82,1.15,7.51-.11-3.82ZM202.58,43.68l.32,3.81c2.76-.23,5.18-.63,7.11-1.03,1.3-.27,2.37-.54,3.17-.76,1-.28,1.59-.47,1.65-.5l-1.23-3.62-2.29-3.06c-.32.24-.66.47-1.02.71-1.23.82-2.45,1.46-3.66,1.95-1.86.76-3.7,1.18-5.5,1.36-.67.06-1.33.09-1.99.09-4.41,0-8.61-1.39-11.67-2.84-1.53-.72-2.77-1.45-3.61-1.98-.42-.27-.74-.48-.94-.63-.1-.07-.18-.12-.22-.16l-.04-.03h0s-1.34,1.77-1.34,1.77l1.35-1.76h0s-1.34,1.76-1.34,1.76l1.35-1.76-2.32,3.04-1.65,3.45c6.76,3.24,13.67,4.19,19.56,4.19,1.63,0,3.19-.07,4.65-.19l-.32-3.81-.32-3.81c-1.27.1-2.62.17-4.02.17-5.08,0-10.83-.84-16.26-3.44l-3.98,6.49c.15.12,2.45,1.86,6.19,3.63,3.74,1.76,8.94,3.56,14.94,3.57.89,0,1.8-.04,2.72-.13,2.5-.24,5.08-.84,7.66-1.89,1.68-.68,3.35-1.56,5-2.66.44-.29.9-.6,1.37-.96l-3.52-6.69h0c-.06.02-.49.16-1.22.36-.67.18-1.57.41-2.7.65-1.66.35-3.78.69-6.18.89l.32,3.81Zm-65.23,50.99l-3.81.39.18,1.79.05.22c.11.49.22.95.33,1.39l3.72-.9-3.78.59c.4,2.56.88,5.24,1.37,7.82l.02.13.03.13c.7,2.65,1.44,5.23,2.07,7.65.34,1.31.74,2.74,1.33,4.2.59,1.46,1.37,2.96,2.5,4.35l2.97-2.41-3.21,2.08c1.08,1.67,2.37,2.97,3.63,4.06,1.26,1.09,2.49,1.98,3.59,2.83l.33.26,1.43.68,1.64-3.45-3.67,1.1,1.29,4.33,1.58,7.17-6.23,1.44-11.9,15.2-48.09,12.12-8.77,20.17-13.45,30.91,3.51,1.53,3.82-.25c-.16-2.38-.25-4.77-.28-7.19l-3.83.05,3.83.05c.1-7.79.86-15.4,2.24-22.79,1.76-9.44,4.51-18.53,8.16-27.15,10.06-23.79,26.89-44.07,48.07-58.37,3.58-2.42,7.31-4.66,11.14-6.73l-1.82-3.36-3.81.39,3.81-.39-1.82-3.36c-4.04,2.19-7.98,4.55-11.78,7.12-22.4,15.13-40.19,36.56-50.84,61.73-3.86,9.12-6.77,18.74-8.63,28.72-1.46,7.82-2.26,15.87-2.37,24.1v.05s0,.05,0,.05c.03,2.55.13,5.08.3,7.6l7.32,1.27,13.45-30.91,7.27-16.72,46.98-11.84,11.85-15.13,10.98-2.53-3.27-14.84-1.86-6.23-2.59-1.23-1.64,3.46,2.35-3.02c-1.23-.96-2.36-1.78-3.28-2.58-.93-.81-1.66-1.57-2.22-2.44l-.11-.17-.13-.16c-.51-.63-.96-1.43-1.35-2.4-.39-.96-.71-2.07-1.02-3.25-.66-2.55-1.4-5.14-2.08-7.7l-3.7.98,3.76-.72c-.48-2.51-.95-5.11-1.33-7.56l-.02-.16-.04-.15c-.11-.44-.2-.85-.29-1.24l-3.74.82,3.81-.39-.74-7.28-5.05,2.73,1.82,3.36Zm-45.54,144.52l3.41-1.73-1.31-2.58-1.49-2.93-3.41,1.73v3.83h3.82l.45.88,1.3,2.54,3.21,6.31,6.91,13.56,6.89-13.54,3.23-6.34h0s1.25-2.44,1.25-2.44l.5-.98h3.82v-3.83l-3.41-1.73-1.58,3.1-1.22,2.4h0s-3.24,6.36-3.24,6.36l-6.24,12.25-6.28-12.31-3.21-6.3h0s-3.41,1.74-3.41,1.74l-3.41,1.74,3.21,6.3,13.09,25.68,13.06-25.62,3.24-6.36,1.22-2.41,4.4-8.66h-14.74l-2.63,5.15-1.25,2.44h0s-3.23,6.35-3.23,6.35l-.07.15-.09-.17-3.22-6.32-1.3-2.55-2.58-5.05h-14.74l4.31,8.48,1.33,2.62-.02-.04,3.41-1.74Zm33.89,6.4h3.83v-11.91h-3.83v3.83h5.49v-3.83h-3.83v26.96h-1.67v3.83h3.83v-18.88h-7.65v22.7h13.14v-31.43s0-7.01,0-7.01h-13.14v15.73h3.83ZM235.38,30.64l3.53-1.48c-.09-.21-1.49-3.54-4.59-7.48-1.55-1.97-3.53-4.1-6.01-6.04-2.47-1.94-5.46-3.7-8.96-4.88l-1.22,3.63-.27,3.82.18-2.48-.2,2.47h.02s.18-2.47.18-2.47l-.2,2.47h.02c.15.02,1.03.11,2.26.44,1.85.49,4.45,1.51,6.64,3.42,1.1.95,2.11,2.12,2.96,3.6.84,1.48,1.52,3.29,1.89,5.59l3.78-.61,3.53-1.48-3.53,1.48,3.78-.61c-.7-4.39-2.36-7.96-4.48-10.68-1.59-2.05-3.41-3.62-5.22-4.82-2.72-1.8-5.41-2.76-7.44-3.3-2.04-.54-3.43-.65-3.61-.66l-1.49,7.44c2.57.86,4.78,2.16,6.67,3.64,2.84,2.23,4.96,4.9,6.33,7.01.69,1.05,1.19,1.95,1.51,2.58.16.31.27.55.34.7l.07.16v.03s1.25-.53,1.25-.53l-1.25.52h0s1.24-.52,1.24-.52l-1.25.52,7.3-2.09-3.78.61Zm-3.25,1.67l-3.73.84c.1.44.19.85.26,1.27l3.77-.64,3.5-1.54c-.05-.12-.45-1-1.23-2.31-1.33-2.21-3.76-5.67-7.67-8.69-1.95-1.51-4.28-2.89-7-3.91-2.72-1.02-5.82-1.65-9.26-1.67l-.03,3.83,1.01,3.69-.4-1.46.39,1.47h.02s-.4-1.47-.4-1.47l.39,1.47s1.83-.47,4.15-.46c1.13,0,2.39.11,3.62.39,1.86.44,3.63,1.24,5.15,2.7,1.51,1.47,2.9,3.66,3.73,7.34h0s3.73-.83,3.73-.83l3.73-.83c-.73-3.25-1.9-5.99-3.41-8.22-2.26-3.36-5.29-5.5-8.27-6.68-2.98-1.19-5.89-1.51-8.3-1.51-3.49,0-5.94.68-6.16.73l.99,7.51c2.54.02,4.72.48,6.63,1.19,2.87,1.07,5.18,2.76,6.98,4.52,1.8,1.76,3.06,3.6,3.8,4.83.29.49.5.88.63,1.14.07.13.11.23.14.28l.02.05h0s2.13-.95,2.13-.95l-2.13.94h0s2.13-.94,2.13-.94l-2.13.94,7.27-2.18c-.1-.6-.22-1.15-.33-1.66h0s-3.73.84-3.73.84Zm-22.92-15.86l2.93-2.46c-.15-.17-1.79-2.11-4.67-4.12-1.44-1-3.21-2.02-5.27-2.8-2.06-.78-4.44-1.32-7.04-1.32-.43,0-.87.01-1.32.05l.27,3.82,1.33,3.59-.85-2.29.82,2.3h.03s-.85-2.3-.85-2.3l.82,2.3v-.03s0,.03,0,.03h0s-.01-.03-.01-.03v.03c.08-.03,1.23-.39,2.67-.39,1.19,0,2.51.22,3.8.93,1.29.72,2.65,1.92,3.93,4.42l3.41-1.73,2.93-2.46-2.93,2.46,3.41-1.73c-1.85-3.69-4.39-6.21-7.07-7.67-2.67-1.47-5.35-1.88-7.49-1.88-2.99,0-5.01.76-5.29.85l1.6,7.4c.26-.02.52-.03.77-.03,1.54,0,2.99.32,4.33.83,2.02.76,3.79,1.97,5.01,2.99.61.51,1.09.96,1.39,1.28.15.16.27.28.33.35l.07.07h0s1.58-1.35,1.58-1.35l-1.6,1.34h.01s1.58-1.34,1.58-1.34l-1.6,1.34,6.34-4.19-3.41,1.73Zm-6,.51l1.83-3.36c-.15-.08-1.94-1.04-4.84-2.01-2.9-.96-6.92-1.93-11.56-1.93-3.23,0-6.78.48-10.37,1.8l1.32,3.59,2.17,3.15-1.23-1.78,1.21,1.8h.02s-1.23-1.8-1.23-1.8l1.21,1.8.04-.02c.21-.14,1.28-.8,2.87-1.4,1.59-.61,3.67-1.15,5.92-1.14,1.53,0,3.13.24,4.81.86,1.67.63,3.43,1.64,5.27,3.29l2.57-2.83,1.83-3.36-1.83,3.36,2.57-2.83c-2.5-2.27-5.14-3.83-7.73-4.79-2.6-.97-5.15-1.34-7.47-1.34-3.8,0-7.02.96-9.31,1.91-2.29.95-3.68,1.89-3.84,2l3.49,6.74c2.63-.96,5.25-1.33,7.74-1.33,3.56,0,6.82.76,9.15,1.54,1.17.39,2.1.77,2.72,1.05.31.14.55.25.69.33l.15.08h.03s.64-1.19.64-1.19l-.65,1.2h.01s.64-1.2.64-1.2l-.65,1.2,4.4-6.19-2.57,2.83Zm-22.27,12.03l-1.43-3.55c-.16.07-1.74.71-3.82,2.06-1.64,1.07-3.6,2.58-5.41,4.66-1.8,2.08-3.45,4.77-4.29,8.07l3.71.94,3.82-.14-2.29.08,2.29-.04v-.04s-2.29.08-2.29.08l2.29-.04h0c0-.15.04-1.57.62-3.06.29-.75.7-1.51,1.28-2.21.59-.7,1.33-1.35,2.41-1.91.94-.48,2.11-.89,3.66-1.12l-.57-3.78-1.43-3.55,1.43,3.55-.57-3.78c-2.31.34-4.32,1-6.04,1.89-2.01,1.03-3.6,2.38-4.79,3.82-1.79,2.16-2.69,4.47-3.16,6.31-.46,1.85-.51,3.27-.51,3.84,0,.12,0,.2,0,.25l7.53.81c.5-1.94,1.47-3.57,2.66-4.95,1.19-1.38,2.59-2.48,3.79-3.25.76-.49,1.43-.86,1.89-1.09.23-.12.41-.2.52-.25l.11-.05-.03-.07.03.07h0s-.03-.07-.03-.07l.03.07-2-7.33.57,3.78Zm-11.24-1.24l-2.1-3.2c-.12.08-1.15.77-2.54,2.01-1.42,1.28-3.23,3.17-4.78,5.68-1.55,2.51-2.84,5.7-3.04,9.45l3.82.2,3.72-.88-1.77.42,1.78-.38v-.04s-1.78.42-1.78.42l1.78-.38s-.13-.62-.13-1.5c0-.99.16-2.28.7-3.5.55-1.23,1.41-2.42,3.18-3.54.68-.42,1.48-.82,2.45-1.17l-1.29-3.6-2.1-3.2,2.1,3.2-1.29-3.6c-1.46.52-2.75,1.16-3.89,1.87-3.09,1.9-5.08,4.48-6.15,6.96-1.09,2.49-1.34,4.83-1.35,6.58,0,1.81.27,3.01.32,3.22l7.54-.68c.12-2.2.87-4.15,1.92-5.84,1.04-1.69,2.35-3.08,3.39-4.01.5-.45.94-.8,1.23-1.02.15-.11.26-.19.33-.24l.07-.05h0s-1.2-1.8-1.2-1.8l1.19,1.81h.01s-1.2-1.81-1.2-1.81l1.19,1.81-3.39-6.8,1.29,3.6ZM27.62,233.7v3.83h15.4c1.76,0,3.42.4,4.94,1.12h0c.24.11.37.17.41.19h0c2.09,1.09,3.81,2.82,4.9,4.91h0c.14.27.26.51.35.73h0c.24.55.43,1.15.6,1.82h0c.23.93.36,1.85.36,2.79,0,2.53-.8,4.84-2.18,6.73-.19.26-.37.5-.54.7v.02s-.02.01-.02.01c-.23.27-.45.51-.65.72h0c-2.1,2.11-4.95,3.39-8.15,3.4h-11.57v-26.96s-3.83,0-3.83,0v3.83-3.83h-3.83v34.61h19.22c5.29,0,10.12-2.16,13.58-5.65h0c.42-.41.78-.82,1.11-1.21l-2.93-2.45,2.91,2.48c.34-.4.64-.79.91-1.16,2.3-3.16,3.65-7.07,3.64-11.24,0-1.63-.22-3.18-.58-4.63h0c-.25-1-.57-2.02-1.01-3.02h0c-.19-.44-.4-.85-.59-1.23h0c-1.82-3.48-4.66-6.32-8.14-8.15h0c-.32-.16-.55-.26-.67-.32h0c-2.47-1.18-5.27-1.86-8.21-1.86h-19.22v3.83h3.83Zm16.02,69.48v-3.83h-8.81v-13.7h8.6v-3.83h-3.83v3.01h3.83v-3.83h-13.16v14.9h12.22v-3.83h-3.83v2.93h3.83v-3.83h-12.22v12.74h13.36v-3.83h-3.83v3.07h3.83v-3.83,3.83h3.83v-6.9h-9.53v-1.26h-3.83v3.83h12.22v-10.58h-12.22v3.83h3.83v-7.25h-3.83v3.83h13.16v-10.66h-20.08v29h20.28v-3.83h-3.83Zm25.18-6.48l-3.54-1.44c-.36.88-.81,1.58-1.4,2.19-.58.6-1.24,1.07-2.09,1.45h0c-.76.34-1.57.51-2.56.52h-3.66v-13.79h3.66c.94,0,1.72.17,2.48.51h0c.83.38,1.5.85,2.1,1.47h0c.61.63,1.08,1.35,1.46,2.24.34.82.52,1.67.52,2.68,0,1.03-.18,1.9-.51,2.73h0s3.54,1.44,3.54,1.44l3.54,1.44c.72-1.77,1.07-3.67,1.07-5.61,0-1.95-.37-3.87-1.12-5.65-.71-1.7-1.72-3.26-2.99-4.57h0c-1.27-1.33-2.8-2.4-4.48-3.15h0c-1.76-.79-3.68-1.19-5.62-1.18h-11.31v29.09h11.31c1.97,0,3.91-.38,5.68-1.18h0c1.69-.75,3.22-1.81,4.49-3.14,1.27-1.32,2.27-2.89,2.96-4.6l-3.54-1.44Zm16.08,6.51v-3.83c-.52,0-.91-.09-1.29-.25h0c-.46-.2-.8-.43-1.12-.73h0c-.29-.29-.5-.59-.68-1h0c-.15-.37-.24-.75-.24-1.27v-14.33h-3.83v3.83h3.07v-3.83h-3.83v14.33c0,1.05.21,2.13.64,3.12h0c.39.9.96,1.75,1.66,2.47h0c.73.75,1.63,1.34,2.57,1.74h0c.97.42,2.05.63,3.1.63,1.05,0,2.14-.2,3.13-.62l.17-.07.37-.2-1.82-3.37,1.68,3.44c.71-.35,1.46-.83,2.14-1.51h0c.73-.71,1.31-1.58,1.71-2.51h0c.43-.97.64-2.06.64-3.1v-14.33h-3.83v3.83h3.07v-3.83h-3.83v14.33c0,.51-.09.87-.24,1.23h0c-.19.42-.42.73-.71,1.02l-.22.21.22-.21c-.12.12-.33.28-.65.47h0c-.28.17-.44.25-.51.28h0c-.39.16-.8.25-1.35.26v7.65c1.48,0,2.96-.28,4.33-.86h0c.64-.27,1.12-.56,1.48-.77l.19-.12-.19.11c.63-.38,1.31-.85,1.98-1.49h0c1.02-.98,1.85-2.16,2.42-3.45h0c.61-1.37.9-2.85.9-4.33v-18.16h-10.72v18.23s-.01.01-.01.01l-.07.11h0s.17.18.17.18l-.15-.19-.02.02.17.17-.15-.19h0l-.11.06-.07.03-.28.15,1.82,3.37-1.49-3.52s-.03.02-.15.02l-.12-.02h0s-.06-.03-.06-.03h0s-.1-.16-.1-.16h0s0-.08,0-.08v-18.16h-10.72v18.16c0,1.47.28,2.94.87,4.3h0c.56,1.29,1.37,2.48,2.39,3.46h0c.99.96,2.17,1.74,3.45,2.28h0c1.36.58,2.83.86,4.3.86v-3.83Zm19.22-7.66l-3.53,1.47c.55,1.33,1.34,2.56,2.33,3.61l.06.07-.07-.07c.99,1.06,2.19,1.91,3.5,2.52h0c1.39.65,2.92.97,4.45.97,1.85,0,3.72-.47,5.33-1.39h0c1.54-.87,2.87-2.11,3.85-3.58l-3.18-2.12-2.29,3.06,2.54,1.9,2.29-3.06-3.08-2.27c-.65.87-1.39,1.52-2.38,2.04h0c-.91.48-1.86.72-3.08.73-.97,0-1.79-.18-2.59-.52-.87-.39-1.57-.87-2.18-1.48h0c-.61-.62-1.09-1.33-1.47-2.21-.35-.82-.52-1.66-.53-2.66,0-1,.18-1.85.53-2.66.38-.88.86-1.59,1.47-2.2h0c.61-.62,1.31-1.1,2.18-1.49.8-.35,1.62-.52,2.59-.53,1.21,0,2.17.25,3.08.72.99.53,1.73,1.17,2.38,2.05l3.08-2.27-2.29-3.06-2.54,1.9,2.29,3.06,3.18-2.12c-.98-1.47-2.31-2.71-3.85-3.58h0c-1.61-.93-3.48-1.4-5.33-1.39-1.53,0-3.06.32-4.45.97h0c-1.31.61-2.51,1.46-3.5,2.52h0c-.99,1.05-1.78,2.28-2.33,3.61-.59,1.42-.88,2.95-.88,4.49,0,1.53.29,3.07.88,4.49l3.53-1.47,3.53-1.47c-.19-.45-.29-.93-.29-1.54,0-.61.1-1.09.29-1.54.23-.54.5-.95.83-1.3h0c.33-.35.68-.61,1.15-.82h0c.39-.17.75-.26,1.25-.26.64,0,1.07.13,1.54.39h0c.55.32.92.67,1.27,1.18l2.24,3.36,8.82-6.59-2.25-3.06c-1.3-1.78-3-3.24-4.96-4.27-2.03-1.08-4.33-1.62-6.66-1.61-1.95,0-3.89.39-5.66,1.17-1.7.75-3.25,1.79-4.54,3.11l-.04.04.04-.04c-1.3,1.31-2.34,2.87-3.07,4.58-.76,1.78-1.15,3.71-1.14,5.67,0,1.96.38,3.9,1.14,5.67.73,1.71,1.77,3.27,3.07,4.58h0c1.3,1.31,2.84,2.36,4.54,3.11,1.78.78,3.71,1.17,5.66,1.17,2.33,0,4.63-.53,6.66-1.62h0c1.96-1.03,3.66-2.49,4.96-4.27l2.25-3.06-8.82-6.59-2.24,3.35c-.35.52-.73.87-1.27,1.18h0c-.48.26-.9.38-1.54.39-.5,0-.86-.09-1.25-.26h0c-.46-.21-.82-.47-1.15-.82l-.06-.07.06.06c-.33-.35-.6-.76-.83-1.3l-3.53,1.47Zm98.07,52.21v-3.83c-6.71,0-13.29-.51-19.72-1.46-19.95-2.97-38.41-10.37-54.43-21.18-4.83-3.26-9.43-6.86-13.79-10.72l-2.54,2.86v3.83h180.99v-3.83l-2.54-2.86c-10.72,9.5-22.98,17.3-36.35,22.95-12.22,5.17-25.37,8.55-39.15,9.83-4.11.38-8.27.59-12.48.59v7.65c4.45,0,8.85-.22,13.19-.62,14.57-1.36,28.49-4.93,41.42-10.4,14.15-5.98,27.11-14.23,38.44-24.27l7.54-6.69H101.63l7.54,6.69c4.6,4.08,9.46,7.88,14.58,11.34,16.94,11.44,36.49,19.27,57.59,22.41,6.8,1.01,13.76,1.55,20.85,1.55v-3.83Zm-74.64-44.55l3.54,1.44,5.2-12.76,5.2,12.76,3.54-1.44v-3.83h-3.19v3.83l3.58-1.36-1.58-4.17h-15.04l-.67,1.7h-.59v3.83l3.54,1.44-3.54-1.44v3.83h5.79l.67-1.7h7.2v-3.83l-3.58,1.36,1.58,4.17h11.52l-14.44-35.39-14.44,35.39h5.69v-3.83Zm25.59-18.4h3.83v-3.01h-3.83v3.83h13.69v-3.83h-3.83v3.01h3.83v-3.83h-9.12v22.22h3.83v-3.83h-3.1v3.83h3.83v-22.22h-9.12v3.83h3.83-3.83v3.83h1.47v18.4h10.75v-18.4h5.29v-10.66h-21.34v10.66h3.83v-3.83Zm33.28,7.28h-3.83v2.93h3.83v-3.83h-12.22v12.74h13.36v-3.83h-3.83v3.07h3.83v-3.83h-8.81v-13.7h8.6v-3.83h-3.83v3.01h3.83v-3.83h-13.15v14.9h12.22v-3.83h-3.83,3.83v-3.83h-8.39v3.83h3.83v-7.25h-3.83v3.83h13.15v-10.66h-20.08v29h20.29v-10.72h-9.53v-1.26h-3.83v3.83h12.22v-10.58h-3.83v3.83Zm9.27,9.59h3.83-2.28l2.1.87c.13-.31.18-.63.18-.87h-2.28l2.1.87-2.1-.87,1.61,1.61c.17-.16.36-.43.49-.74l-2.1-.87,1.61,1.61h0s-1.62-1.62-1.62-1.62l.87,2.11c.31-.12.58-.32.75-.5l-1.62-1.62.87,2.11-.86-2.09v2.27c.23,0,.56-.05.86-.18l-.86-2.09v2.27s0-2.27,0-2.27l-.87,2.1c.31.13.63.18.87.18v-2.27l-.87,2.1.87-2.11-1.62,1.61c.17.17.44.37.75.5l.87-2.11-1.62,1.61h0s1.61-1.6,1.61-1.6l-2.1.87c.13.31.32.58.49.74l1.61-1.61-2.1.87,2.1-.87h-2.28c0,.23.05.56.18.87l2.1-.87h-2.28s2.27,0,2.27,0l-2.09-.87c-.13.31-.18.63-.18.87h2.27l-2.09-.87,2.1.87-1.61-1.62c-.17.17-.37.44-.49.74l2.1.87-1.61-1.62h0s1.62,1.62,1.62,1.62l-.87-2.11c-.31.12-.58.32-.75.5l1.62,1.61-.87-2.11.87,2.1v-2.27c-.24,0-.56.05-.87.18l.87,2.1v-2.27,2.27l.86-2.09c-.31-.13-.63-.18-.86-.18v2.27l.86-2.09-.87,2.11,1.62-1.62c-.17-.17-.44-.37-.75-.5l-.87,2.11,1.62-1.62h0s-1.61,1.61-1.61,1.61l2.1-.87c-.13-.31-.32-.58-.49-.74l-1.61,1.62,2.1-.87-2.1.87h2.27c0-.23-.05-.56-.18-.87l-2.1.87h2.27-7.65c0,.66.12,1.39.4,2.06.28.67.7,1.28,1.17,1.75h0c.47.47,1.08.89,1.75,1.17.67.28,1.39.4,2.06.4.66,0,1.38-.12,2.06-.4.67-.28,1.28-.7,1.75-1.18h0c.47-.46.9-1.06,1.17-1.74.28-.67.41-1.4.4-2.06,0-.66-.12-1.39-.41-2.06-.28-.67-.7-1.28-1.17-1.74h0c-.47-.47-1.08-.89-1.75-1.17-.67-.28-1.39-.41-2.06-.4-.66,0-1.38.12-2.06.4-.67.28-1.28.7-1.75,1.18h0c-.47.46-.89,1.06-1.17,1.74-.28.67-.41,1.4-.41,2.06h3.83Zm11.2,1.58l3.76.7,1.83-9.86,5.4,11.37,5.44-11.4,1.83,9.89,3.76-.7v-3.83h-3.19v3.83l3.77-.66-4.16-23.85-7.44,15.86-7.42-15.9-4.17,23.89,3.77.66v-3.83h-3.19v3.83l3.76.7-3.76-.7v3.83h6.4l.54-3.09,4.05,8.67,9.23-19.69-3.46-1.62-3.77.66,2.63,15.07h11l-6.96-37.56-8.66,18.14-8.64-18.17-6.97,37.59h4.6v-3.83Zm30.12-10.73h3.83c0-1.03.18-1.9.53-2.74.38-.9.86-1.61,1.47-2.23h0c.63-.63,1.33-1.11,2.2-1.5.81-.35,1.64-.53,2.64-.53,1,0,1.84.18,2.67.53h0c.89.38,1.59.87,2.21,1.49.61.62,1.09,1.33,1.47,2.23h0c.35.84.53,1.71.53,2.74,0,1.01-.18,1.86-.53,2.68h0c-.38.89-.86,1.6-1.48,2.23-.62.62-1.32,1.1-2.21,1.49l-.27.12.27-.12c-.82.35-1.67.53-2.66.53-1,0-1.83-.18-2.64-.53h0c-.88-.39-1.58-.87-2.2-1.5h0c-.62-.63-1.1-1.34-1.48-2.23-.35-.83-.53-1.68-.53-2.69h-7.65c0,1.96.38,3.9,1.14,5.68.73,1.73,1.77,3.3,3.09,4.62l.18.18-.18-.18c1.31,1.32,2.86,2.38,4.58,3.13h0c1.79.78,3.73,1.17,5.7,1.17,1.97,0,3.91-.38,5.7-1.16h0c1.72-.75,3.29-1.8,4.61-3.13,1.31-1.32,2.35-2.89,3.08-4.62h0c.77-1.78,1.14-3.72,1.14-5.68,0-1.97-.37-3.92-1.14-5.72l-.02-.05.02.05c-.73-1.74-1.77-3.32-3.09-4.64-1.31-1.33-2.88-2.38-4.6-3.13h0c-1.79-.78-3.73-1.17-5.7-1.16-1.97,0-3.91.39-5.7,1.17-1.72.75-3.28,1.81-4.58,3.13h0c-1.32,1.32-2.36,2.91-3.09,4.64-.76,1.79-1.14,3.74-1.14,5.71h3.83Zm29.51-7.72h3.83v-3.01h-3.83v3.83h13.69v-3.83h-3.83v3.01h3.83v-3.83h-9.12v22.22h3.83v-3.83h-3.1v3.83h3.83v-22.22h-9.12v3.83h3.83-3.83v3.83h1.47v18.4h10.75v-18.4h5.29v-10.66h-21.34v10.66h3.83v-3.83Zm21.82,18.43h3.83v-21.44h-3.83v3.83h3.13v-3.83h-3.83v21.44h3.83v-3.83h-3.13v3.83h3.83-3.83v3.83h6.95v-29.09h-10.78v29.09h3.83v-3.83Zm25.41-13.39l-3.55-1.44-5.36,13.23h0s-.11.28-.11.28l3.55,1.43,3.56-1.41-.03-.08h0s-1.67-4.14-1.67-4.14l-7.02-17.33-3.55,1.44v3.83h.67l8.04,19.79,8.04-19.79h.67s0-3.83,0-3.83l-3.55-1.44-3.25,8.02,3.55,1.44,3.55,1.44,5.38-13.29h-11.5l-2.89,7.12-2.89-7.12h-11.5l9.15,22.6,1.67,4.11v-.02s.02.08.02.08l3.53,8.87,3.69-9.13h0s5.36-13.23,5.36-13.23l-3.55-1.44Zm25.68,13.36l3.58-1.36-1.58-4.17h-15.04l-.67,1.7h-.59v3.83l3.54,1.44,8.75-21.44-3.54-1.44-3.54,1.44,2.23,5.47,6.52,15.97,3.54-1.44v-3.83h-3.19v3.83l3.58-1.36-3.58,1.36v3.83h8.88l-8.67-21.24-5.77-14.15-14.44,35.39h11.48l.67-1.7h7.2v-3.83l-3.58,1.36,1.58,4.17h2.64v-3.83Zm24.98-18.4v-3.83h-9.12v22.22h3.83v-3.83h-3.1v3.83h3.83v-22.22h-9.12v3.83h3.83v-3.01h-3.83v3.83h13.69v-3.83h-3.83v3.01h3.83v-3.83,3.83h3.83v-6.84h-21.34v10.66h5.29v18.4h10.75v-18.4h5.29v-3.83h-3.83Zm20.77,18.37v-3.83h-8.81v-13.7s8.6,0,8.6,0v-3.83h-3.83v3.01h3.83v-3.83h-13.15v14.9h12.22v-3.83h-3.83v2.93h3.83v-3.83h-12.22v12.74h13.36v-3.83h-3.83v3.07h3.83v-3.83,3.83h3.83v-6.9h-9.53v-1.26s-3.83,0-3.83,0v3.83h12.22v-10.58h-12.22v3.83h3.83v-7.25h-3.83v3.83h13.15v-10.66h-20.08v29h20.29v-3.83h-3.83Zm1.75-29.01v-3.83H28.69v3.83h3.83v-.88h-3.83v3.83h358.25v-3.83h-3.83v.88h3.83v-3.83,3.83h3.83v-4.71H24.87v8.53h365.9v-3.83h-3.83Zm2.67-9.71v-3.83h-15.6c-.95,0-1.83-.22-2.62-.61h-.02s0-.01,0-.01c-1.19-.58-2.12-1.52-2.68-2.69l-.02-.04-.02-.04c-.39-.78-.61-1.64-.61-2.59v-17.15h1.66s0-3.83,0-3.83h-3.83v21.78l.03.25c.49,3.69,3.38,6.57,7.06,7.06l.25.03h12.57v1.66h3.83v-3.83,3.83h3.83v-9.31h-19.97v3.83l.5-3.79c-.23-.02-.45-.25-.47-.47l-3.79.5h3.83v-25.35h-13.14v24.8c0,2.16.51,4.23,1.44,6.04l3.41-1.73-3.45,1.65c1.31,2.75,3.52,4.95,6.25,6.28h-.02c1.8.88,3.85,1.39,6.01,1.39h19.43v-3.83h-3.83Z"/>
        <path class="cls-1" d="m242.48,298.01l-2.76,2.65c1,1.05,2.21,1.9,3.53,2.49h0c1.39.63,2.92.96,4.45.95,1.53,0,3.06-.32,4.45-.95h0c1.33-.6,2.55-1.45,3.56-2.49h0c1.02-1.06,1.81-2.31,2.37-3.65.59-1.42.88-2.95.88-4.48,0-1.53-.29-3.06-.87-4.48-.55-1.35-1.34-2.61-2.36-3.67h0c-1.01-1.07-2.23-1.93-3.57-2.53h0c-1.39-.63-2.92-.95-4.45-.95-1.53,0-3.06.32-4.45.95-1.33.6-2.55,1.47-3.55,2.53-1.01,1.06-1.8,2.32-2.36,3.67-.58,1.42-.87,2.95-.87,4.48,0,1.53.29,3.06.88,4.48.56,1.35,1.36,2.6,2.37,3.65l2.76-2.65,2.76-2.65c-.33-.35-.59-.74-.82-1.28-.19-.47-.29-.94-.29-1.55,0-.61.1-1.09.3-1.58.23-.55.49-.95.83-1.31.34-.36.7-.61,1.16-.82.41-.18.78-.27,1.28-.27.5,0,.89.09,1.32.28h0c.47.21.83.47,1.17.82h0c.33.35.6.75.83,1.31.2.48.3.97.3,1.58,0,.61-.1,1.08-.29,1.55-.23.54-.49.93-.82,1.28h0c-.34.35-.7.6-1.18.82h0c-.42.19-.81.27-1.31.28-.5,0-.88-.09-1.28-.27h0c-.47-.22-.83-.48-1.18-.83l-2.76,2.65Z"/>
        <path class="cls-1" d="m324.19,254.66h3.83c0-2.24-.92-4.3-2.39-5.76-1.46-1.47-3.52-2.39-5.76-2.39h-19.3v16.31h19.3c2.24,0,4.3-.92,5.76-2.39,1.47-1.46,2.39-3.52,2.39-5.76h-7.65c0,.14-.05.25-.15.35-.11.1-.21.15-.35.15h-11.65v-1h11.65c.15,0,.25.05.35.15.1.1.15.21.15.35h3.83Z"/>
        <polygon class="cls-1" points="136.29 288.94 132.73 287.55 126.87 302.59 145.72 302.59 136.29 278.41 132.73 287.55 136.29 288.94 132.73 290.33 134.53 294.94 132.46 294.94 132.46 298.77 136.03 300.15 139.86 290.33 136.29 288.94 132.73 290.33 136.29 288.94"/>
        <path class="cls-1" d="m217.59,250.34v-3.83h-19.3v16.31h19.3c2.24,0,4.3-.92,5.76-2.39,1.47-1.46,2.39-3.52,2.39-5.76,0-2.24-.92-4.3-2.39-5.76-1.46-1.47-3.52-2.39-5.76-2.39v7.65c.15,0,.25.05.35.15.1.1.15.21.15.35,0,.14-.05.25-.15.35-.11.1-.21.15-.35.15h-11.65v-1h11.65s0-3.83,0-3.83Z"/>
        <polygon class="cls-1" points="333.89 288.94 330.32 287.55 328.15 293.11 324.46 302.59 343.32 302.59 337.95 288.83 333.89 278.41 330.32 287.55 333.89 288.94 330.32 290.33 330.82 291.6 332.12 294.94 330.06 294.94 330.06 298.77 333.62 300.15 335.28 295.89 337.45 290.33 333.89 288.94 330.32 290.33 333.89 288.94"/>
        <path class="cls-1" d="m218.87,242h3.83c0-1.83-.75-3.51-1.95-4.71-1.19-1.2-2.88-1.95-4.7-1.95h-17.75v13.31h17.75c1.83,0,3.51-.75,4.7-1.95,1.2-1.19,1.95-2.88,1.95-4.71h-7.65,1l-.71-.71c-.17.17-.29.44-.29.71h1l-.71-.71.7.7v-.99c-.27,0-.54.12-.7.29l.7.7v-.99h-10.1v-1.83h-3.83v3.83h13.93v-.99l-.7.7c.17.17.44.29.7.29v-.99l-.7.7.71-.71h-1c0,.27.12.54.29.71l.71-.71h-1s3.83,0,3.83,0Z"/>
        <path class="cls-1" d="m155.41,239.19v-3.83h-13.74v27.46h13.74c3.78,0,7.23-1.55,9.7-4.03,2.48-2.47,4.02-5.93,4.02-9.71,0-1.65-.31-3.23-.83-4.66-.96-2.64-2.69-4.9-4.93-6.5-2.23-1.6-5-2.56-7.96-2.56v7.65c1.31,0,2.5.41,3.5,1.13,1,.71,1.78,1.73,2.2,2.89.24.67.37,1.35.37,2.05,0,1.69-.68,3.19-1.78,4.3-1.11,1.11-2.61,1.78-4.28,1.78h-6.09v-9.51s0-2.65,0-2.65h6.09s0-3.83,0-3.83Z"/>
        <path class="cls-1" d="m245,239.17v-3.83c-3.02,0-5.85.99-8.11,2.66-2.27,1.67-4,4.01-4.91,6.74h0c-.45,1.35-.71,2.81-.71,4.33,0,3.78,1.55,7.23,4.03,9.71,2.47,2.48,5.93,4.03,9.71,4.02,3.78,0,7.23-1.55,9.71-4.02,2.48-2.47,4.03-5.93,4.03-9.71,0-1.49-.24-2.92-.68-4.24-.9-2.76-2.64-5.12-4.91-6.8-2.27-1.68-5.11-2.69-8.15-2.68v7.65c1.36,0,2.58.44,3.6,1.18,1.01.75,1.79,1.81,2.18,3.02.2.6.3,1.22.3,1.87,0,1.68-.67,3.18-1.78,4.3-1.12,1.11-2.61,1.78-4.3,1.78-1.68,0-3.18-.67-4.3-1.78-1.11-1.12-1.78-2.61-1.78-4.3,0-.66.11-1.29.32-1.91h0c.4-1.2,1.18-2.25,2.19-2.99,1.01-.74,2.23-1.17,3.58-1.17v-3.83Z"/>
        <path class="cls-1" d="m321.14,242h3.83c0-1.83-.75-3.51-1.95-4.71-1.19-1.2-2.88-1.95-4.7-1.95h-17.75v13.31h17.75c1.83,0,3.51-.75,4.7-1.95,1.2-1.19,1.95-2.88,1.95-4.71h-7.65,1l-.71-.71c-.17.17-.29.44-.29.71h1l-.71-.71.7.7v-.99c-.27,0-.54.12-.7.29l.7.7v-.99h-10.1v-1.83s-3.83,0-3.83,0v3.83h13.93v-.99l-.7.7c.17.17.44.29.7.29v-.99l-.7.7.71-.71h-1c0,.27.12.54.29.71l.71-.71h-1s3.83,0,3.83,0Z"/>
        <path class="cls-1" d="m174.21,94.07l-.34-3.81c-1.72.15-3.47.47-5.17,1.07-1.7.6-3.37,1.5-4.8,2.86l-9.4,8.93,12.74-2.4-.38-2.04.2,2.07s.08,0,.18-.03l-.38-2.04.2,2.07-.02-.24.02.24h0s-.02-.24-.02-.24l.02.24h.07c.3,0,1.46.04,3.32,1.2,1.72,1.07,3.6,1.7,5.54,2.15,1.94.44,3.91.67,5.73.67.98,0,1.92-.06,2.86-.24.47-.09.94-.21,1.44-.4.49-.19,1.02-.44,1.58-.88l-2.36-3.01-3.37-1.82,1.3.71-1.3-.71h0s1.3.71,1.3.71l-1.3-.71s-.73,1.34-1.73,2.79c-.49.72-1.06,1.48-1.59,2.09-.53.61-1.05,1.08-1.28,1.21l2.84,6.96c.26-.06,3.14-.63,6.46-2.63,1.66-1,3.43-2.38,4.97-4.28,1.53-1.9,2.79-4.35,3.34-7.28l-3.76-.71-.56,3.78.94.14,6.61.98-2.5-6.2-.05-.13c-.11-.26-.36-.9-.65-1.66l-3.57,1.37,3.81.33v-.12s.47-5.29.47-5.29l-5.22,1.25.89,3.72,3.57-1.36c-.32-.83-.68-1.8-.94-2.59-.13-.39-.24-.73-.29-.94-.03-.1-.04-.17-.04-.17l-2.14.41h2.17c0-.34-.03-.4-.03-.41l-2.14.41h2.17-3.39l3.33.61c.05-.29.05-.47.06-.61h-3.39l3.33.61-3.62-.66,3.11,1.97c.37-.6.46-1.02.51-1.31l-3.62-.66,3.11,1.97,3.22-5.07-31.98-4.17-8.7,9.42,4.63,5.96,3.34-1.81,10.08,1.5.56-3.78-.34-3.81.34,3.81.56-3.78-12.6-1.88-5.59,3.02,1.82,3.37,2.81,2.6,6.02-6.51,22.11,2.88.49-3.79-3.23-2.05c-.39.62-.48,1.08-.55,1.42-.06.34-.07.57-.07.77,0,.49.06.76.11,1.03.09.44.19.82.31,1.22.36,1.19.88,2.6,1.33,3.77l1.2,3.14,3.32-.8-.89-3.72-3.81-.33v.12s-.09.88-.09.88l.31.82c.42,1.09.75,1.91.75,1.92l3.55-1.43.56-3.78-.94-.14-3.64-.54-.68,3.62c-.31,1.63-.95,2.85-1.79,3.9-1.24,1.56-3.02,2.67-4.52,3.34-.75.34-1.41.56-1.86.7-.23.07-.4.11-.5.14l-.1.02h0s.45,2.11.45,2.11l-.43-2.12h-.02s.45,2.12.45,2.12l-.43-2.12.76,3.75,2.08,3.21c1.19-.78,2.09-1.7,2.92-2.64,1.23-1.42,2.25-2.93,3-4.13.75-1.19,1.21-2.05,1.24-2.1l-5.72-4.83.99,1.26-.57-1.51s-.16.06-.41.25l.99,1.26-.57-1.51.05.14-.05-.14h0s.05.14.05.14l-.05-.14s-.2.06-.49.09c-.29.04-.67.06-1.1.06-1.15,0-2.66-.16-4.02-.48-1.36-.3-2.6-.79-3.17-1.17-3.11-1.97-5.85-2.4-7.4-2.39-.65,0-1.09.07-1.3.11l.71,3.76,2.63,2.77c.48-.45,1.16-.87,2.08-1.19.92-.33,2.06-.55,3.3-.66l.22-7.59-.56,3.78Z"/>
        <path class="cls-1" d="m182.7,126l-1.34-3.58c-1.04.39-1.81.96-2.46,1.55-1.13,1.03-1.95,2.19-2.69,3.38-1.1,1.78-1.97,3.65-2.59,5.11-.62,1.46-.99,2.5-1.01,2.56l6.98,3.07-.83-.44.83.44h0s-.83-.44-.83-.44l.83.44s.96-1.78,2.18-3.53c.61-.88,1.29-1.75,1.89-2.38.3-.31.57-.56.77-.71.1-.08.18-.13.22-.16l.04-.02-.12-.23.09.24h.02s-.12-.24-.12-.24l.09.24c1.26-.49,2.33-1.17,3.26-1.92,1.39-1.13,2.46-2.39,3.28-3.62.41-.62.75-1.22,1.03-1.85.14-.31.27-.63.37-.98.11-.35.2-.73.25-1.22l1.05-11.48-7.7,8.58,1.13,1.02-1.13-1.03h0s1.13,1.03,1.13,1.03l-1.13-1.03s-.7.77-1.68,1.59c-.49.41-1.05.84-1.61,1.2-.56.36-1.12.66-1.57.82l1.34,3.58,1.34,3.58c1.18-.44,2.22-1.02,3.15-1.63,1.39-.91,2.52-1.89,3.34-2.65.82-.77,1.32-1.32,1.38-1.39l-2.85-2.56-3.81-.35,1.96.18-1.91-.48s-.03.14-.05.3l1.96.18-1.91-.48.85.21-.84-.26v.04s.84.21.84.21l-.84-.26.26.08-.26-.09h0s.26.09.26.09l-.26-.09s-.12.3-.33.64c-.32.53-.84,1.19-1.41,1.73-.57.55-1.19.95-1.63,1.11-.87.34-1.56.79-2.18,1.26-1.08.84-1.95,1.79-2.76,2.77-1.2,1.47-2.2,3.01-2.94,4.2-.73,1.2-1.19,2.05-1.22,2.1l3.38,1.8,3.61,1.27-.58-.2.58.21h0s-.58-.21-.58-.21l.58.21s.79-2.21,1.87-4.34c.53-1.06,1.15-2.12,1.69-2.83.27-.36.51-.62.67-.76l.13-.1-.18-.28.15.29.03-.02-.18-.28.15.29-.47-.91.36.96.11-.05-.47-.91.36.96-1.34-3.58Z"/>
        <path class="cls-2" d="m64.24,286.9c-.67-.72-1.47-1.29-2.38-1.71-.92-.42-1.91-.63-2.98-.63h-4.01v15.94h4.01c1.09,0,2.1-.21,3.01-.63.92-.42,1.71-.99,2.37-1.71.66-.72,1.18-1.57,1.55-2.53s.56-2,.56-3.09-.19-2.12-.56-3.09-.89-1.81-1.56-2.53Z"/>
        <path class="cls-2" d="m52.91,249.08v-.11c-.02-1.51-.39-2.93-1.01-4.21-1.61-3.29-4.98-5.57-8.88-5.57h-9.91v19.81h9.91c5.45,0,9.89-4.44,9.89-9.91Z"/>
        <path class="cls-2" d="m387.08,223.97h-31.21c.18-3.05.28-6.11.28-9.2,0-.58-.02-1.16-.02-1.74,0-.58.02-1.16.02-1.74,0-9.63-1.58-19.05-3.27-28.19h0c-2.05-9.79-5.02-19.25-8.83-28.26-11.69-27.64-31.2-51.13-55.77-67.73-11.3-7.64-23.69-13.79-36.87-18.24l-.59-32.18-8.47-6.49C225.4,1.47,185.13,6.39,185.13,6.39c-32.9,5.89-42.87,36.26-42.87,36.26v30.27c-27.64,11.69-51.13,31.2-67.73,55.77-10.94,16.19-18.87,34.62-23.01,54.41h0c-1.69,9.15-3.29,18.57-3.29,28.19,0,.58.03,1.16.03,1.74,0,.58-.03,1.16-.03,1.74,0,3.09.1,6.16.28,9.2h-20.98c-13.04,0-23.72,7.81-23.72,17.36v54.73c0,9.55,10.67,17.36,23.72,17.36h59.48c15.12,17.04,33.94,30.71,55.24,39.72,18.42,7.79,38.7,12.1,59.93,12.1,31.85,0,61.52-9.7,86.08-26.3,10.75-7.26,20.53-15.85,29.12-25.52h69.69c13.04,0,23.72-7.81,23.72-17.36v-54.73c0-9.55-10.67-17.36-23.72-17.36Zm-24.43,40.51h-6.16l-2.82-5.51-3.18-6.24-3.26-6.41-.27-.54-.27.54-6.44,12.65-2.82,5.51h-6.16l2.8-5.51,2.56-5.02,3.9-7.65,1.71-3.35,2.42-4.74.45-.89,1.86-3.64,4.73,9.28.83,1.64.89,1.75,6.44,12.63,2.8,5.51Zm-63.76,0v-30.79h19.42c3.18,0,5.94,1.79,7.34,4.41.62,1.17.98,2.5.98,3.91,0,1.56-.45,3.01-1.2,4.25l-.13.24c2.64,1.76,4.38,4.76,4.38,8.17,0,5.42-4.39,9.81-9.81,9.81h-20.97s0,0,0,0Zm-9.9-18.34v-1.26l-1.63,1.25-3.77,2.9-4.5,3.47-4.5-3.47-3.84-2.95-1.56-1.2v19.61h-5.51v-30.8l5.26,4.06.24.19,9.89,7.63,9.89-7.63.08-.06,5.43-4.18v30.8h-5.51v-18.35Zm-28.6,2.95c0,8.5-6.89,15.39-15.39,15.39s-15.39-6.89-15.39-15.39c0-1.08.11-2.13.32-3.14.69-3.33,2.47-6.25,4.93-8.42,2.71-2.38,6.25-3.83,10.14-3.83s7.55,1.51,10.28,3.96c2.41,2.17,4.14,5.08,4.81,8.39.2.98.3,2,.3,3.04Zm-32.99,5.58c0,5.42-4.39,9.81-9.81,9.81h-20.97s0,0,0,0v-30.79h19.42c2.91,0,5.47,1.5,6.95,3.76.86,1.31,1.36,2.87,1.36,4.56,0,1.42-.38,2.75-1.02,3.91-.1.19-.2.39-.32.58,2.64,1.76,4.38,4.76,4.38,8.17Zm-56.62-5.58c0,3.77-1.35,7.24-3.64,9.91-.28.33-.57.66-.88.97-2.78,2.8-6.62,4.52-10.86,4.52h-15.4v-30.78h15.4c3.64,0,6.98,1.27,9.61,3.38,2.68,2.15,4.63,5.18,5.4,8.66.24,1.08.37,2.19.37,3.34Zm-81.99,9.9l2.8,5.51h-6.16l-2.82-5.51-6.71-13.19-3.68,7.23-3.03,5.96-1.06,2.06-1.76,3.44h-6.16l2.8-5.51,2.56-5.03,4.35-8.54.06-.12,4.47-8.77,1.44-2.83,1.45,2.85,4.55,8.92,6.89,13.53Zm63.63-203.1c2.42-4.36,6.14-12.11,6.14-12.11.81,3.87,4.2,5.17,4.2,5.17-1.78-3.71,2.1-7.91,2.1-7.91-.48,5.81,3.71,8.72,3.71,8.72,3.71-7.43,8.88-6.13,8.88-6.13,9.16,4.48,17.69,5.13,23.15,4.92,0,0-10.31,5.52-18.75,4.73,0,0,13.99,5.99,20.18,3.93,1.4-.47,2.7,1,3.77,3.7,1.58,3.97,2.66,10.59,2.88,17.58,0,.21.01.41.02.62.17,7.05-.54,14.4-2.52,19.72l-1.96,3.92.85,27.31-15.24-8.05,2.45,1.52,11.32,16.56-3,2.21c-.57.02-1.14.03-1.72.03-11.01,0-17.06-2.45-17.06-2.45l-1.46,3.92,1.31-1.52c7.7,2.06,14.69,2.48,20.47,2.22.86,1.64,1.46,3.95-.2,6.06,0,0,10.01,15.03-.76,26.47-.63.05-1.29.09-2.01.12-4.42-.2-7.39-.84-9.21-1.41-.93-.29-1.57-.57-1.96-.76l-.12-.06c-.32-.63-.93-1.83-1.58-3.05-.47-.89-.97-1.79-1.39-2.51-.21-.36-.41-.67-.61-.95-.1-.14-.2-.27-.33-.41-.07-.07-.14-.15-.26-.25-.08-.06-.18-.14-.33-.22-.05-.03-.18-.12-.34-.24-.8-.58-2.51-1.89-4.59-3.5-3.13-2.42-7.12-5.55-10.33-8.06-1.61-1.26-3.01-2.37-4.02-3.16-.5-.39-.9-.71-1.18-.93l-1.2-4.01-5.47-26.24,4.73,2.14c-11-5.83-9.37-29.5-9.37-29.53h0s0,0,0,0l.45-6.16.38-5.28v-26.64Zm77.39-18.97s-3.99-5.02-10.91-8.09c-4.65-2.06-10.62-3.25-17.6-1.45,0,0,13.34-7.78,23.22,1.76,1.94,1.87,3.74,4.39,5.29,7.78Zm11.54,28.94c.28,2.77.3,5.47.18,7.98-.08,1.53-.21,2.99-.38,4.36-.25,2.08-.57,3.93-.89,5.49-.23,1.15-.46,2.17-.66,2.97-.6,2.51-2.09,3.61-3.66,4.04-2.42.67-5.06-.27-5.06-.27.87-1.32,1.62-2.69,2.28-4.1.63-1.34,1.15-2.71,1.61-4.1.42-1.28.78-2.58,1.08-3.89,1.03-4.6,1.33-9.27,1.23-13.54-.21-9.77-2.43-17.48-2.43-17.48,2.23,3.07,3.8,6.34,4.87,9.65.96,2.97,1.53,5.97,1.82,8.89Zm74,72.61c9.93,14.7,17.05,31.42,20.64,49.42.04.19.08.37.12.55-.07-.19-.13-.37-.2-.55-3.18-8.9-5.56-15.24-5.95-15.38-1.34-.49-62.25-19.86-62.25-19.86l-13.98-13.36-10.7-3.7,1.49-6.68.77-2.57.04-.02c.11-.25.29-.5.55-.72,3.67-3.2,6.86-6.17,8.87-10.71,1.77-3.98,2.65-8.29,3.48-12.55.04-.21.11-.39.19-.55.27-1.54.53-3.07.75-4.54.17-1.16.33-2.27.45-3.33l.02.06c.16-.94.26-1.9.34-2.86,22.46,10.51,41.6,26.98,55.37,47.37Zm7.04,49.51l-2.94-7.37c-3.56,1.1-7.23,3.85-10.8,7.45-11.89,12.04-22.52,33.66-23.6,35.9-.06.12-.1.21-.1.21l.09-.21c7.12-17.5,14.75-28.73,21.21-35.89,8.93-9.89,15.63-11.99,15.63-11.99l3.83,11.86,11.61,36.01.57,1.77.26.81,1.43,4.43-1.49-3.74-.28-.69-1.03-2.59-14.38-35.99Zm-190.68,36.33s-.07-.13-.18-.35c-1.48-2.83-12.36-23.22-24.24-34.63-3.56-3.42-7.2-6.03-10.72-7.12l-3.79,7.21-18.16,34.54-2.59,4.93,2.13-4.93,14.91-34.52,5.71-13.22s7.18,2.24,16.6,13.08c6.23,7.17,13.43,18.1,20.18,34.66.05.12.1.23.15.35Zm7.85-60.87l8.8,25.63,1.43,4.16,2.94-4.18.25-.35,5.92-8.43s1.74,3.09,7.5,8.7c5.2,5.06,13.67,12.18,27.1,20.95,0,0-22.08-12.77-31.73-20.92-1.06-.9-1.98-1.74-2.7-2.5l-2.31,2.53-3.4,3.73-4.6,5.04-2.33-8.71-6.85-25.64Zm115.36,33.34l2.46-8.4,7.3-24.94-5.99,24.93-3.14,13.08-7.17-10.35-1.84-2.65-1.36-1.97c-.58.61-1.29,1.29-2.1,1.99-4.56,3.98-12.41,9.21-19.24,13.5-7.1,4.47-13.08,7.93-13.08,7.93,5.09-3.33,9.46-6.4,13.21-9.21,6.55-4.91,11.2-9.01,14.44-12.19,5.21-5.13,6.78-7.9,6.78-7.9l4.06,6.73.66,1.09,5.03,8.35Zm16.23-33.47l32.37,9.14s-39.14-1.1-32.37-9.14Zm-61.11-36.8c2.37,1.93,8.77,12.43,8.77,12.43-1.79-2.64-9.09-9.79-9.09-9.79l.32-2.64Zm.71-22.78c5.18,4.59,10.95,5.77,10.95,5.77-2.36-1.18-4.59-6.48-4.59-6.48,3.7,2.03,8.13,1.64,11.52.82,3.09-.76,5.32-1.88,5.32-1.88-1.27,3.77-2.63,6.52-4.05,8.46-8.7,11.96-19.16-6.69-19.16-6.69Zm44.63-18.71c.82-.6,1.38-.6,1.75-.19.4.44.58,1.36.61,2.52.02.81-.03,1.74-.12,2.71-.36,3.85-1.4,8.31-1.4,8.31.34-3.08.34-5.23.13-6.7-1.06-7.22-7.57,2.3-7.57,2.3,1.54-2.6,2.83-4.56,3.91-6.01,1.11-1.49,1.99-2.43,2.69-2.94Zm-6.66,26.55c-1.81-1.2-.92-5.09,1.24-8.79,2.18-3.74-1.17-4.41-1.17-4.41l.44-.37c7.06-1.87,3.75,6.55.43,9.25-3.02,2.45-1.27,4.04-.92,4.32Zm-12.48,45.93l2.21-1.35.98-4.39c.97,9.72-.53,23.45-11.78,36.82-.88,1.04-1.8,2.08-2.8,3.11-4.45,4.62-10.15,9.15-17.4,13.42,7.81-5.11,13.51-10.68,17.67-16.16.09-.12.17-.24.26-.36,11.98-16.02,10.86-31.09,10.86-31.09Zm2.7-13.3l-.37,1.61-.05.2-.05.21-1.93,8.29-.07.06-8.83,7.2-4.91,4-7.82,6.37-.47.38-2.67,2.18-2.35,1.91-.05.04-2.09,1.7-1.99,1.62,1.73-1.65,1.34-1.28,2.32-2.21,4.95-4.71h.01s5.66-5.41,5.66-5.41l6.63-6.31,6-5.72,2.71-7.8.89-2.57,2.67-7.68,2.82-8.11-1.96,8.41-2.15,9.27Zm-22.17-94.21c-5.09,2.68-11.75,5.49-17.96,5.96,0,0,7.17-2.05,17.51-6.74,2.78-1.26,5.79-2.71,8.95-4.37,0,0-3.48,2.51-8.5,5.15Zm-34.15,122.4l.08.15,1.62,6.34c6.54,3.97,12.89,4.53,17.86,3.98l.35,5.89,1,16.86c-4.19-1.91-15.22-7.45-25.25-16.71-8.81-8.13-16.84-19.15-18.79-33.11l20.07,13.39-.06-.19c.34.26.65.49.91.69.31.24.57.42.77.57l.26.18c.05.07.12.18.2.3.26.4.6,1.01.97,1.68Zm-35.24-81.57c.6.93,1.25,1.97,1.95,3.16,0,0-.86-1.25-1.99-2.5-.37-.4-.76-.8-1.17-1.16l-.18-.16c-1.89-1.61-3.95-2.21-4.32,2.29-.12,1.42-.06,3.35.22,5.93,0,0-.6-2.58-1.05-5.51-.31-2.04-.55-4.24-.45-5.87v-.16s.02-.02.02-.02c.04-.56.13-1.05.27-1.42.06-.17.13-.32.22-.44.27-.37.65-.5,1.18-.29.51.2,1.15.7,1.95,1.59.78.86,1.71,2.1,2.82,3.76.17.26.35.54.53.82Zm2.01,20.76c.35-.27,2.1-1.87-.92-4.32-.71-.58-1.42-1.42-2.02-2.37-1.92-2.98-2.81-6.98.47-7.13.54-.03,1.19.04,1.98.25l.44.37s-3.36.67-1.17,4.41c2.16,3.7,3.05,7.59,1.24,8.79Zm-47.52,62.17l32.37-9.14c6.77,8.05-32.37,9.14-32.37,9.14ZM202.58,43.68c2.58-.21,4.85-.59,6.64-.96,1.21-.25,2.2-.5,2.93-.71.91-.25,1.44-.43,1.44-.43-.4.3-.8.57-1.2.84-1.44.95-2.89,1.71-4.33,2.3-2.22.91-4.43,1.42-6.57,1.62-11.47,1.1-21.15-6.3-21.15-6.3,7.77,3.73,15.95,4.16,22.24,3.64Zm-65.23,50.99l.16,1.57c.1.44.2.88.31,1.31.39,2.51.86,5.14,1.35,7.69.69,2.6,1.43,5.18,2.07,7.67.64,2.49,1.45,5.07,3.1,7.1,1.64,2.53,4.03,4.14,6.36,5.95l1.06.5,1.34,4.47,2.42,11.01-8.6,1.98-11.88,15.17-47.54,11.98-8.02,18.44-13.45,30.91c-.16-2.45-.26-4.91-.29-7.4.1-8.01.88-15.84,2.3-23.44,1.81-9.71,4.64-19.06,8.39-27.93,10.35-24.48,27.67-45.33,49.45-60.05,3.7-2.49,7.53-4.8,11.46-6.93Zm-45.54,144.52l-1.31-2.58-1.49-2.92h6.16l1.52,2.96,1.3,2.54,3.22,6.32,3.5,6.87,3.48-6.84,3.23-6.34,1.25-2.44,1.57-3.06h6.16l-1.58,3.1-1.22,2.4-3.24,6.36-9.65,18.93-9.68-18.99-3.21-6.3Zm33.89,6.4v-11.91h5.49v30.78h-5.49v-18.88ZM235.38,30.64s-5.1-12.18-17.25-16.25c0,0,14.8,1.06,17.25,16.25Zm-3.25,1.67c.11.47.21.96.29,1.46,0,0-.33-.74-1.01-1.89-2.31-3.86-8.72-12.32-20.67-12.41,0,0,17.44-4.8,21.38,12.83Zm-22.92-15.86s-6.27-7.46-15.1-6.84c0,0,9.8-3.64,15.1,6.84Zm-6,.51s-11.59-6.31-23.62-1.91c0,0,12.22-8.42,23.62,1.91Zm-22.27,12.03s-1.37.55-3.17,1.72c-2.83,1.84-6.73,5.22-8.07,10.47,0,0-.25-7.26,6.39-10.68,1.33-.68,2.92-1.22,4.85-1.51Zm-11.24-1.24s-.88.58-2.08,1.66c-2.45,2.21-6.25,6.55-6.56,12.49,0,0-1.9-8.06,5.47-12.63.91-.57,1.95-1.08,3.17-1.52ZM27.62,233.7h15.4c2.35,0,4.58.54,6.57,1.49.18.09.36.17.54.26,2.79,1.46,5.07,3.74,6.52,6.53.17.32.33.65.47.98.34.77.6,1.58.8,2.41.29,1.19.47,2.43.47,3.71,0,3.35-1.07,6.46-2.91,8.98-.23.32-.47.63-.73.93-.28.33-.57.66-.88.97-2.78,2.8-6.62,4.52-10.86,4.52h-15.4v-30.78Zm16.02,69.48h-12.63v-21.35h12.43v3.01h-9.33v7.25h8.39v2.93h-8.39v5.09h9.53v3.07Zm25.18-6.48c-.53,1.3-1.25,2.43-2.18,3.39-.93.96-2.02,1.73-3.29,2.3-1.27.57-2.64.85-4.12.85h-7.49v-21.44h7.49c1.44,0,2.79.28,4.05.85,1.26.57,2.35,1.34,3.29,2.31.93.98,1.68,2.11,2.22,3.41.55,1.3.82,2.69.82,4.17s-.26,2.87-.79,4.17Zm16.08,6.51c-.99,0-1.93-.18-2.79-.56-.87-.37-1.63-.87-2.28-1.51-.65-.63-1.17-1.38-1.53-2.24-.37-.86-.56-1.78-.56-2.78v-14.33h3.07v14.33c0,.57.11,1.1.32,1.59.21.5.51.94.88,1.32.37.38.81.68,1.31.89.51.21,1.04.32,1.61.32s1.13-.11,1.64-.32l.21-.11c.42-.2.79-.45,1.12-.78.38-.38.68-.82.89-1.32.22-.5.32-1.03.32-1.59v-14.33h3.07v14.33c0,.99-.19,1.92-.57,2.78-.38.86-.9,1.6-1.56,2.24-.4.38-.84.69-1.31.98-.32.19-.64.38-1,.53-.88.37-1.82.56-2.84.56Zm19.22-7.66c.39.94.92,1.75,1.58,2.46.66.7,1.44,1.26,2.32,1.67.89.41,1.84.61,2.85.61,1.25,0,2.39-.3,3.44-.89,1.04-.59,1.9-1.39,2.56-2.38l2.54,1.9c-.98,1.33-2.2,2.38-3.67,3.16-1.47.78-3.1,1.17-4.87,1.17-1.46,0-2.84-.28-4.12-.85-1.29-.57-2.41-1.33-3.36-2.3-.96-.97-1.71-2.1-2.27-3.39-.56-1.3-.83-2.69-.83-4.17s.28-2.87.83-4.17c.56-1.3,1.31-2.43,2.27-3.39.95-.97,2.07-1.73,3.36-2.3s2.66-.85,4.12-.85c1.77,0,3.4.39,4.87,1.17,1.47.78,2.7,1.83,3.67,3.16l-2.54,1.9c-.66-.99-1.52-1.79-2.56-2.38-1.04-.59-2.19-.89-3.44-.89-1.01,0-1.96.2-2.85.61-.89.41-1.66.97-2.32,1.67-.66.7-1.19,1.52-1.58,2.46s-.58,1.94-.58,3.01.19,2.08.58,3.01Zm98.07,52.21c-6.9,0-13.67-.52-20.28-1.5-20.52-3.06-39.53-10.67-56.01-21.8-4.98-3.36-9.71-7.06-14.19-11.03h180.99c-11.02,9.78-23.64,17.79-37.39,23.61-12.58,5.32-26.11,8.8-40.29,10.12-4.22.39-8.5.6-12.83.6Zm-74.64-44.55l8.75-21.44,8.75,21.44h-3.19l-.64-1.7h-9.8l-.67,1.7h-3.19Zm25.59-18.4v-3.01h13.69v3.01h-5.29v18.4h-3.1v-18.4h-5.29Zm33.28,7.28v2.93h-8.39v5.09h9.53v3.07h-12.64v-21.35h12.43v3.01h-9.33v7.25h8.39Zm9.27,9.59c0-.43.15-.79.45-1.1.3-.3.67-.45,1.1-.45s.79.15,1.1.45c.3.3.45.67.45,1.1s-.15.8-.45,1.1c-.3.3-.67.45-1.1.45s-.8-.15-1.1-.45c-.3-.3-.45-.67-.45-1.1Zm11.2,1.58l3.98-21.47,7.02,14.77,7.05-14.77,3.98,21.47h-3.19l-2.08-11.9-5.76,12.28-5.73-12.28-2.08,11.9h-3.19Zm30.12-10.73c0-1.5.28-2.91.83-4.23.56-1.32,1.31-2.46,2.28-3.44.96-.97,2.09-1.75,3.39-2.31,1.3-.57,2.69-.85,4.17-.85s2.88.28,4.18.85c1.3.57,2.44,1.34,3.41,2.31.96.98,1.72,2.12,2.28,3.44.56,1.32.83,2.72.83,4.23s-.28,2.88-.83,4.18c-.56,1.31-1.31,2.45-2.28,3.42-.96.98-2.1,1.75-3.41,2.31-1.31.57-2.7.85-4.18.85s-2.87-.28-4.17-.85c-1.3-.57-2.43-1.34-3.39-2.31-.97-.98-1.73-2.12-2.28-3.42s-.83-2.7-.83-4.18Zm29.51-7.72v-3.01h13.69v3.01h-5.29v18.4h-3.1v-18.4h-5.29Zm21.82,18.43v-21.44h3.13v21.44h-3.13Zm25.41-13.39l-5.36,13.23-.11.27-.03-.08-1.67-4.11-7.02-17.34h3.25l5.47,13.45,5.47-13.45h3.25l-3.25,8.02Zm25.68,13.36l-.64-1.7h-9.8l-.67,1.7h-3.19l8.75-21.44,2.23,5.47,6.52,15.97h-3.19Zm24.98-18.4h-5.29v18.4h-3.1v-18.4h-5.29v-3.01h13.69v3.01Zm20.77,18.37h-12.64v-21.35h12.43v3.01h-9.33v7.25h8.39v2.93h-8.39v5.09h9.53v3.07Zm1.75-29.01H28.69v-.88h358.25v.88Zm2.67-9.71h-15.6c-1.55,0-3.02-.37-4.32-1.01-1.96-.95-3.53-2.52-4.46-4.48-.66-1.3-1.02-2.76-1.02-4.32v-20.98h5.49v21.53c.26,1.96,1.81,3.51,3.77,3.77h16.15v5.49Z"/>
        <path class="cls-2" d="m242.48,298.01c.67.7,1.46,1.25,2.35,1.66.9.41,1.85.61,2.86.61s1.97-.2,2.88-.61c.91-.41,1.69-.96,2.37-1.66.67-.7,1.2-1.52,1.59-2.46s.58-1.95.58-3.02-.19-2.08-.58-3.03c-.39-.95-.92-1.78-1.59-2.49-.67-.71-1.46-1.27-2.37-1.68-.91-.41-1.87-.61-2.88-.61s-1.97.2-2.86.61c-.9.41-1.68.97-2.35,1.68-.67.71-1.2,1.54-1.59,2.49-.39.95-.58,1.96-.58,3.03s.19,2.07.58,3.02.92,1.76,1.59,2.46Z"/>
        <path class="cls-2" d="m324.19,254.66c0-2.39-1.94-4.33-4.33-4.33h-15.48v8.65h15.48c2.38,0,4.33-1.94,4.33-4.33Z"/>
        <polygon class="cls-2" points="136.29 288.94 132.46 298.77 140.13 298.77 136.29 288.94"/>
        <path class="cls-2" d="m217.59,250.34h-15.48v8.65h15.48c2.38,0,4.33-1.94,4.33-4.33s-1.94-4.33-4.33-4.33Z"/>
        <polygon class="cls-2" points="333.89 288.94 331.72 294.5 330.06 298.77 337.72 298.77 334.38 290.21 333.89 288.94"/>
        <path class="cls-2" d="m218.87,242c0-1.56-1.27-2.83-2.83-2.83h-13.93v5.66h13.93c1.56,0,2.83-1.27,2.83-2.83Z"/>
        <path class="cls-2" d="m155.41,239.19h-9.91v19.81h9.91c5.45,0,9.89-4.44,9.89-9.91,0-1.18-.22-2.31-.6-3.36-1.38-3.8-5.02-6.54-9.29-6.54Z"/>
        <path class="cls-2" d="m245,239.17c-4.37,0-8.08,2.85-9.39,6.78-.33.98-.51,2.03-.51,3.12,0,5.46,4.44,9.91,9.9,9.91s9.9-4.44,9.9-9.91c0-1.07-.18-2.1-.49-3.06-1.29-3.97-5.02-6.85-9.42-6.85Z"/>
        <path class="cls-2" d="m321.14,242c0-1.56-1.27-2.83-2.83-2.83h-13.93v5.66h13.93c1.56,0,2.83-1.27,2.83-2.83Z"/>
        <path class="cls-2" d="m174.21,94.07c-2.96.26-5.77,1.08-7.68,2.89,0,0,2.44-.46,5.96,1.76,3.51,2.21,11,2.9,12.75,1.53,0,0-3.05,5.65-5.88,7.48,0,0,10.05-2.02,11.76-11.14l.94.14s-.33-.81-.73-1.86v-.12s-.04.01-.04.01c-.72-1.88-1.65-4.48-1.47-4.79l-24.07-3.14-7.36,7.96,4.46-2.41,11.34,1.69Z"/>
        <path class="cls-2" d="m182.7,126c-3.3,1.23-6.49,10.29-6.49,10.29,0,0,3.92-7.34,7.1-8.56,3.18-1.22,5.63-5.02,5.75-6.36,0,0-3.06,3.41-6.36,4.64Z"/>
      </g>
      <g>
        <path class="cls-1" d="m225.13,188.95c-4.16,5.48-9.86,11.05-17.67,16.16,7.26-4.27,12.95-8.8,17.4-13.42,1-1.03,1.93-2.07,2.8-3.11,11.25-13.37,12.75-27.09,11.78-36.82l-.98,4.39-2.21,1.35s1.12,15.07-10.86,31.09c-.09.12-.17.24-.26.36Z"/>
        <path class="cls-3" d="m225.28,44.83c-3.16,1.66-6.17,3.11-8.95,4.37-10.34,4.69-17.51,6.74-17.51,6.74,6.21-.47,12.87-3.28,17.96-5.96,5.01-2.64,8.5-5.15,8.5-5.15Z"/>
        <path class="cls-3" d="m229.82,36.91c-1.54-3.39-3.35-5.91-5.29-7.78-9.88-9.54-23.22-1.76-23.22-1.76,6.98-1.8,12.94-.61,17.6,1.45,6.92,3.07,10.91,8.09,10.91,8.09Z"/>
        <path class="cls-3" d="m231.41,31.9c.68,1.14,1.01,1.89,1.01,1.89-.09-.51-.19-.99-.29-1.46-3.94-17.63-21.38-12.83-21.38-12.83,11.95.09,18.36,8.55,20.67,12.41Z"/>
        <path class="cls-3" d="m235.38,30.64c-2.44-15.19-17.25-16.25-17.25-16.25,12.14,4.08,17.25,16.25,17.25,16.25Z"/>
        <path class="cls-3" d="m203.2,16.96c-11.4-10.33-23.62-1.91-23.62-1.91,12.03-4.41,23.62,1.91,23.62,1.91Z"/>
        <path class="cls-3" d="m209.2,16.46c-5.3-10.48-15.1-6.84-15.1-6.84,8.83-.62,15.1,6.84,15.1,6.84Z"/>
        <path class="cls-3" d="m180.93,28.99c-1.93.29-3.53.82-4.85,1.51-6.64,3.42-6.39,10.68-6.39,10.68,1.34-5.25,5.24-8.63,8.07-10.47,1.8-1.17,3.17-1.72,3.17-1.72Z"/>
        <path class="cls-3" d="m161.05,41.9c.31-5.94,4.11-10.28,6.56-12.49,1.2-1.08,2.08-1.66,2.08-1.66-1.21.44-2.26.95-3.17,1.52-7.37,4.57-5.47,12.63-5.47,12.63Z"/>
        <path class="cls-3" d="m202.58,43.68c-6.3.52-14.47.09-22.24-3.64,0,0,9.68,7.4,21.15,6.3,2.15-.21,4.35-.72,6.57-1.62,1.44-.59,2.89-1.35,4.33-2.3.4-.27.8-.54,1.2-.84,0,0-.52.18-1.44.43-.73.2-1.72.45-2.93.71-1.8.37-4.06.75-6.64.96Z"/>
        <path class="cls-2" d="m229.92,110.42c1.41-1.94,2.78-4.69,4.05-8.46,0,0-2.23,1.12-5.32,1.88-3.39.83-7.82,1.22-11.52-.82,0,0,2.24,5.3,4.59,6.48,0,0-5.77-1.18-10.95-5.77,0,0,10.46,18.65,19.16,6.69Z"/>
        <path class="cls-2" d="m237.1,64.79c.09,4.28-.2,8.95-1.23,13.54-.29,1.31-.65,2.61-1.08,3.89-.46,1.39-.98,2.76-1.61,4.1-.66,1.41-1.41,2.78-2.28,4.1,0,0,2.64.94,5.06.27,1.57-.43,3.06-1.54,3.66-4.04.19-.8.42-1.81.66-2.97.32-1.57.64-3.42.89-5.5.17-1.37.3-2.82.38-4.36.13-2.51.1-5.2-.18-7.98-.29-2.91-.85-5.92-1.82-8.89-1.08-3.31-2.64-6.59-4.87-9.65,0,0,2.22,7.71,2.43,17.48Z"/>
        <polygon class="cls-3" points="209.39 176.65 209.44 176.61 211.79 174.69 214.46 172.52 214.93 172.13 222.74 165.76 227.66 161.76 236.49 154.56 236.56 154.51 238.48 146.22 238.53 146 238.58 145.8 238.95 144.2 241.11 134.92 243.06 126.51 240.24 134.62 237.57 142.31 236.67 144.88 233.96 152.68 227.96 158.4 221.33 164.72 215.67 170.11 215.66 170.12 210.71 174.83 208.39 177.04 207.05 178.32 205.31 179.97 207.3 178.35 209.39 176.65"/>
        <path class="cls-3" d="m256.37,91.67c.22,1.47.21,3.62-.13,6.7,0,0,1.04-4.46,1.4-8.31.09-.97.14-1.9.12-2.71-.03-1.16-.21-2.08-.61-2.52-.37-.41-.93-.4-1.75.19-.7.51-1.58,1.45-2.69,2.94-1.08,1.45-2.37,3.41-3.91,6.01,0,0,6.51-9.52,7.57-2.3Z"/>
        <path class="cls-3" d="m248.74,111.57c-.35-.27-2.1-1.87.92-4.32,3.33-2.7,6.63-11.12-.43-9.25l-.44.37s3.36.67,1.17,4.41c-2.16,3.7-3.05,7.59-1.24,8.79Z"/>
        <path class="cls-3" d="m210.05,126.51l-.32,2.64s7.3,7.16,9.09,9.79c0,0-6.4-10.51-8.77-12.43Z"/>
        <path class="cls-3" d="m303.53,172.46l-32.37-9.14c-6.77,8.05,32.37,9.14,32.37,9.14Z"/>
        <path class="cls-3" d="m337.81,226.56l.27.69,1.49,3.74-1.43-4.43-.26-.81-.57-1.77-11.61-36.01-3.83-11.86s-6.69,2.09-15.63,11.99c-6.46,7.15-14.09,18.38-21.21,35.89-.03.07-.06.14-.09.21,0,0,.04-.09.1-.21,1.08-2.24,11.71-23.86,23.6-35.9,3.56-3.6,7.23-6.35,10.8-7.46l2.94,7.37,14.38,35.99,1.03,2.59Z"/>
        <polygon class="cls-3" points="34.1 295.02 42.5 295.02 42.5 292.1 34.1 292.1 34.1 289.97 34.1 288.22 34.1 284.84 43.43 284.84 43.43 281.83 31 281.83 31 303.18 43.64 303.18 43.64 300.11 34.1 300.11 34.1 295.02"/>
        <path class="cls-3" d="m66.57,284.96c-.94-.97-2.03-1.74-3.29-2.31-1.26-.57-2.61-.85-4.05-.85h-7.49v21.44h7.49c1.48,0,2.86-.28,4.12-.85,1.27-.57,2.36-1.33,3.29-2.3.93-.97,1.65-2.1,2.18-3.39.53-1.3.79-2.69.79-4.17s-.27-2.87-.82-4.17c-.55-1.3-1.29-2.43-2.22-3.41Zm-.76,10.65c-.37.97-.89,1.81-1.55,2.53-.66.72-1.45,1.29-2.37,1.71-.92.42-1.92.63-3.01.63h-4.01v-15.94h4.01c1.07,0,2.07.21,2.98.63.92.42,1.71.99,2.38,1.71s1.19,1.57,1.56,2.53.56,2,.56,3.09-.19,2.12-.56,3.09Z"/>
        <path class="cls-3" d="m89.12,287.69v8.45c0,.57-.11,1.1-.32,1.59-.21.5-.51.94-.89,1.32-.32.32-.7.57-1.12.78-.07.04-.14.08-.21.11-.51.21-1.05.32-1.64.32s-1.1-.11-1.61-.32c-.51-.21-.95-.51-1.31-.89-.37-.38-.66-.82-.88-1.32-.22-.5-.32-1.03-.32-1.59v-14.33h-3.07v14.33c0,.99.19,1.92.56,2.78.37.86.88,1.6,1.53,2.24.65.63,1.41,1.14,2.28,1.51.87.37,1.8.56,2.79.56s1.96-.18,2.84-.56c.35-.15.68-.34,1-.53.47-.28.92-.6,1.31-.98.66-.63,1.18-1.38,1.56-2.24.38-.86.57-1.78.57-2.78v-14.33h-3.07v5.88Z"/>
        <path class="cls-3" d="m105.7,287.07c.66-.7,1.44-1.26,2.32-1.67.89-.41,1.84-.61,2.85-.61,1.25,0,2.39.3,3.44.89,1.04.6,1.9,1.39,2.56,2.38l2.54-1.9c-.98-1.33-2.2-2.38-3.67-3.16-1.47-.78-3.1-1.17-4.87-1.17-1.46,0-2.84.28-4.12.85s-2.41,1.33-3.36,2.3c-.96.96-1.71,2.1-2.27,3.39-.56,1.3-.83,2.69-.83,4.17s.28,2.87.83,4.17c.56,1.3,1.31,2.43,2.27,3.39.95.96,2.07,1.73,3.36,2.3,1.29.57,2.66.85,4.12.85,1.77,0,3.4-.39,4.87-1.17,1.47-.78,2.7-1.83,3.67-3.16l-2.54-1.9c-.66.99-1.52,1.79-2.56,2.38-1.04.6-2.19.89-3.44.89-1.01,0-1.96-.2-2.85-.61-.89-.41-1.66-.97-2.32-1.67-.66-.7-1.19-1.52-1.58-2.46-.39-.94-.58-1.94-.58-3.01s.19-2.08.58-3.01.92-1.75,1.58-2.46Z"/>
        <path class="cls-3" d="m127.55,303.21h3.19l.67-1.7h9.8l.64,1.7h3.19l-8.75-21.44-8.75,21.44Zm4.91-4.45l3.83-9.83,3.83,9.83h-7.66Z"/>
        <polygon class="cls-3" points="153.14 284.81 158.43 284.81 158.43 303.21 161.53 303.21 161.53 284.81 166.83 284.81 166.83 281.8 153.14 281.8 153.14 284.81"/>
        <polygon class="cls-3" points="178.03 295.02 186.42 295.02 186.42 292.1 178.03 292.1 178.03 289.97 178.03 288.22 178.03 284.84 187.36 284.84 187.36 281.83 174.93 281.83 174.93 303.18 187.56 303.18 187.56 300.11 178.03 300.11 178.03 295.02"/>
        <path class="cls-3" d="m197.25,300.14c-.43,0-.8.15-1.1.45-.3.3-.45.67-.45,1.1s.15.8.45,1.1c.3.3.67.45,1.1.45s.79-.15,1.1-.45c.3-.3.45-.67.45-1.1s-.15-.79-.45-1.1c-.3-.3-.67-.45-1.1-.45Z"/>
        <polygon class="cls-3" points="217.89 296.57 210.87 281.8 206.89 303.27 210.08 303.27 212.16 291.37 217.89 303.65 223.65 291.37 225.73 303.27 228.92 303.27 224.94 281.8 217.89 296.57"/>
        <path class="cls-3" d="m255.29,284.87c-.96-.97-2.1-1.75-3.41-2.31-1.31-.57-2.7-.85-4.18-.85s-2.87.28-4.17.85c-1.3.57-2.43,1.34-3.39,2.31-.97.98-1.73,2.12-2.28,3.44-.56,1.32-.83,2.72-.83,4.23s.28,2.88.83,4.18,1.31,2.45,2.28,3.42c.96.98,2.09,1.75,3.39,2.31,1.3.57,2.69.85,4.17.85s2.88-.28,4.18-.85c1.3-.57,2.44-1.34,3.41-2.31.96-.98,1.72-2.12,2.28-3.42.56-1.31.83-2.7.83-4.18s-.28-2.91-.83-4.23c-.56-1.32-1.31-2.46-2.28-3.44Zm-.75,10.68c-.39.94-.92,1.76-1.59,2.46-.67.7-1.46,1.25-2.37,1.66-.91.41-1.87.61-2.88.61s-1.97-.2-2.86-.61c-.9-.41-1.68-.96-2.35-1.66-.67-.7-1.2-1.52-1.59-2.46s-.58-1.95-.58-3.02.19-2.08.58-3.03c.39-.95.92-1.78,1.59-2.49.67-.71,1.46-1.27,2.35-1.68.9-.41,1.85-.61,2.86-.61s1.97.2,2.88.61c.91.41,1.69.97,2.37,1.68.67.71,1.2,1.54,1.59,2.49.39.95.58,1.96.58,3.03s-.19,2.07-.58,3.02Z"/>
        <polygon class="cls-3" points="266.53 284.81 271.83 284.81 271.83 303.21 274.93 303.21 274.93 284.81 280.22 284.81 280.22 281.8 266.53 281.8 266.53 284.81"/>
        <rect class="cls-3" x="288.35" y="281.8" width="3.13" height="21.44"/>
        <polygon class="cls-3" points="308.3 295.28 302.83 281.83 299.58 281.83 306.6 299.17 308.27 303.28 308.3 303.36 308.41 303.09 313.76 289.86 317.01 281.83 313.77 281.83 308.3 295.28"/>
        <path class="cls-3" d="m333.89,281.77l-8.75,21.44h3.19l.67-1.7h9.8l.64,1.7h3.19l-6.51-15.97-2.23-5.47Zm3.83,16.99h-7.66l1.66-4.26,2.17-5.56.5,1.28,3.33,8.55Z"/>
        <polygon class="cls-3" points="350.73 284.81 356.03 284.81 356.03 303.21 359.13 303.21 359.13 284.81 364.42 284.81 364.42 281.8 350.73 281.8 350.73 284.81"/>
        <polygon class="cls-3" points="375.65 300.11 375.65 295.02 384.05 295.02 384.05 292.1 375.65 292.1 375.65 289.97 375.65 288.22 375.65 284.84 384.98 284.84 384.98 281.83 372.55 281.83 372.55 303.18 385.19 303.18 385.19 300.11 375.65 300.11"/>
      </g>
      <g>
        <path class="cls-1" d="m267.73,152.65s60.91,19.38,62.25,19.86c.39.14,2.77,6.48,5.95,15.38.07.18.13.37.2.55-.04-.19-.08-.37-.12-.55-3.59-18.01-10.72-34.72-20.64-49.42-13.77-20.38-32.91-36.85-55.37-47.37-.07.96-.18,1.93-.34,2.86l-.02-.06c-.13,1.06-.28,2.18-.45,3.33-.22,1.47-.48,3-.75,4.54-.08.16-.15.34-.19.55-.83,4.26-1.72,8.56-3.48,12.55-2.01,4.54-5.2,7.51-8.87,10.71-.26.23-.44.47-.55.72l-.04.02-.77,2.57-1.49,6.68,10.7,3.7,13.98,13.36Z"/>
        <path class="cls-1" d="m125.9,324.46c16.48,11.13,35.49,18.74,56.01,21.8l33.11.9c14.18-1.32,27.71-4.8,40.29-10.12,13.76-5.82,26.37-13.84,37.39-23.61H111.71c4.48,3.97,9.21,7.67,14.19,11.03Z"/>
        <path class="cls-1" d="m79.48,189.51l8.02-18.44,47.54-11.98,11.88-15.17,8.6-1.98-2.42-11.01-1.34-4.47-1.06-.5c-2.33-1.81-4.72-3.42-6.36-5.95-1.65-2.03-2.46-4.61-3.1-7.1-.64-2.49-1.38-5.07-2.07-7.67-.49-2.55-.96-5.18-1.35-7.69-.11-.44-.21-.88-.31-1.31l-.16-1.57c-3.94,2.13-7.77,4.43-11.46,6.93-21.79,14.72-39.1,35.57-49.45,60.05-3.75,8.87-6.58,18.22-8.39,27.93-1.42,7.61-2.2,15.44-2.3,23.44.03,2.48.13,4.95.29,7.4l13.45-30.91Z"/>
        <path class="cls-1" d="m160.97,123.5l-4.73-2.14,5.47,26.24,1.2,4.01c.28.22.68.53,1.18.93,1.01.79,2.42,1.9,4.02,3.16,3.21,2.52,7.2,5.64,10.33,8.06,2.08,1.61,3.79,2.92,4.59,3.5.16.12.29.21.34.24.15.08.25.16.33.22.12.1.19.18.26.25.13.15.23.27.33.41.19.27.39.59.61.95.43.72.92,1.62,1.39,2.51.65,1.23,1.26,2.42,1.58,3.05l.12.06c.39.19,1.02.46,1.96.76,1.82.57,4.79,1.21,9.21,1.41.72-.03,1.39-.07,2.01-.12,10.77-11.44.76-26.47.76-26.47,1.66-2.11,1.71-2.78.85-4.42-5.78.27-13.77-.59-21.47-2.65l-1.56,1.95,2.07-5.55s6.05,2.45,17.06,2.45c.57,0,1.15-.01,1.72-.03l3-2.21-11.32-16.56-2.45-1.52,15.24,8.05-.85-27.31,1.96-3.92c1.98-5.31,2.69-12.66,2.52-19.72,0-.21-.01-.41-.02-.62-.22-6.99-1.31-13.61-2.88-17.58-1.07-2.69-2.36-4.16-3.77-3.7-6.2,2.07-20.18-3.93-20.18-3.93,8.44.79,18.75-4.73,18.75-4.73-5.45.22-13.99-.43-23.15-4.92,0,0-5.17-1.29-8.88,6.13,0,0-4.2-2.91-3.71-8.72,0,0-3.88,4.2-2.1,7.91,0,0-3.39-1.29-4.2-5.17,0,0-3.71,7.75-6.14,12.11v26.64l-.38,5.29-.44,6.16h0s0,0,0,0c0,.03-1.63,23.7,9.37,29.53Zm22.34,4.22c-3.18,1.22-7.1,8.56-7.1,8.56,0,0,3.18-9.05,6.49-10.29,3.3-1.23,6.36-4.64,6.36-4.64-.12,1.35-2.57,5.14-5.75,6.36Zm7.81-31.13c-1.72,9.12-11.76,11.14-11.76,11.14,2.83-1.83,5.88-7.48,5.88-7.48-1.76,1.37-9.24.69-12.75-1.53-3.51-2.21-5.96-1.76-5.96-1.76,1.91-1.81,4.72-2.63,7.68-2.89l-11.34-1.69-4.46,2.41,7.36-7.96,24.07,3.14c-.19.3.75,2.9,1.47,4.79h.05s-.01.11-.01.11c.4,1.05.73,1.86.73,1.86l-.94-.14Z"/>
        <path class="cls-1" d="m202.55,188.74l-.35-5.89c-4.98.56-11.33,0-17.86-3.98l-1.62-6.34-.08-.15c-.36-.66-.71-1.27-.97-1.68-.08-.12-.15-.23-.2-.3l-.26-.18c-.2-.14-.46-.33-.77-.57-.26-.2-.58-.43-.91-.69l.06.19-20.07-13.39c1.95,13.97,9.98,24.98,18.79,33.11,10.03,9.26,21.06,14.79,25.25,16.71l-1-16.86Z"/>
        <path class="cls-1" d="m141.89,98.37c-.28-2.58-.33-4.51-.22-5.93.37-4.5,2.43-3.9,4.32-2.29.06.05.12.11.18.16.41.36.8.76,1.17,1.17,1.14,1.25,1.99,2.5,1.99,2.5-.7-1.19-1.35-2.22-1.95-3.16-.18-.28-.36-.56-.53-.82-1.11-1.66-2.04-2.9-2.82-3.76-.8-.89-1.44-1.39-1.95-1.59-.53-.21-.91-.08-1.18.29-.09.12-.16.27-.22.44-.14.37-.23.86-.27,1.42,0,0,0,.01,0,.02v.16c-.11,1.63.13,3.83.44,5.87.45,2.93,1.05,5.51,1.05,5.51Z"/>
        <path class="cls-1" d="m149.4,111.57c1.81-1.2.92-5.09-1.24-8.79-2.18-3.74,1.17-4.41,1.17-4.41l-.44-.37c-.79-.21-1.43-.27-1.98-.25-3.28.16-2.39,4.15-.47,7.13.61.94,1.31,1.79,2.02,2.37,3.02,2.45,1.27,4.04.92,4.32Z"/>
        <path class="cls-3" d="m166.4,188.96c-5.76-5.61-7.5-8.7-7.5-8.7l-5.92,8.43-.25.35-2.94,4.18-1.43-4.16-8.8-25.63,6.85,25.64,2.33,8.71,4.6-5.04,3.4-3.73,2.31-2.54c.72.76,1.63,1.61,2.7,2.5,9.65,8.15,31.73,20.92,31.73,20.92-13.43-8.77-21.9-15.89-27.1-20.95Z"/>
        <path class="cls-3" d="m238.67,188.96c5.76-5.61,7.5-8.7,7.5-8.7l5.92,8.43.25.35,2.94,4.18,1.43-4.16,8.8-25.63-6.85,25.64-2.33,8.71-4.6-5.04-3.4-3.73-2.31-2.54c-.72.76-1.63,1.61-2.7,2.5-9.65,8.15-31.73,20.92-31.73,20.92,13.43-8.77,21.9-15.89,27.1-20.95Z"/>
        <path class="cls-3" d="m134.26,164.59l-32.37,9.14s39.14-1.1,32.37-9.14Z"/>
        <path class="cls-3" d="m131.72,224.32c-.05-.12-.1-.23-.15-.35-6.75-16.55-13.95-27.49-20.18-34.66-9.41-10.84-16.6-13.08-16.6-13.08l-5.71,13.22-14.91,34.52-2.13,4.93,2.59-4.93,18.16-34.54,3.79-7.21c3.51,1.09,7.16,3.7,10.71,7.12,11.88,11.41,22.76,31.8,24.24,34.63.11.22.18.35.18.35Z"/>
        <path class="cls-1" d="m53.88,259.96c.31-.31.6-.64.88-.97.26-.3.5-.61.73-.93,1.84-2.53,2.91-5.64,2.91-8.98,0-1.28-.17-2.52-.47-3.71-.21-.83-.47-1.64-.8-2.41-.14-.33-.3-.66-.47-.98-1.46-2.79-3.74-5.07-6.52-6.53-.18-.09-.36-.17-.54-.26-2-.95-4.22-1.49-6.57-1.49h-15.4v30.78h15.4c4.24,0,8.08-1.72,10.86-4.52Zm-20.78-20.78h9.91c3.9,0,7.28,2.28,8.88,5.57.62,1.28.99,2.7,1,4.21,0,.04,0,.08,0,.11,0,5.47-4.44,9.91-9.89,9.91h-9.91v-19.81Z"/>
        <polygon class="cls-1" points="68.14 261.04 69.19 258.98 72.23 253.02 75.91 245.79 82.62 258.98 85.44 264.48 91.6 264.48 88.8 258.98 81.91 245.45 77.36 236.53 75.91 233.68 74.46 236.51 69.99 245.29 69.93 245.41 65.58 253.95 63.01 258.98 60.21 264.48 66.38 264.48 68.14 261.04"/>
        <polygon class="cls-1" points="111.43 239.19 108.2 245.54 104.72 252.38 101.22 245.51 98 239.19 96.7 236.65 95.19 233.69 89.03 233.69 90.51 236.61 91.82 239.19 95.03 245.49 104.72 264.49 114.37 245.56 117.61 239.19 118.83 236.79 120.41 233.69 114.25 233.69 112.68 236.75 111.43 239.19"/>
        <polygon class="cls-1" points="125.71 245.6 125.71 264.47 131.2 264.47 131.2 245.61 131.2 236.87 131.2 233.69 125.71 233.69 125.71 236.84 125.71 245.6"/>
        <path class="cls-1" d="m165.02,237.08c-2.64-2.11-5.98-3.38-9.61-3.38h-15.4v30.78h15.4c4.24,0,8.08-1.72,10.86-4.52.31-.31.6-.64.88-.97,2.29-2.67,3.64-6.15,3.64-9.91,0-1.15-.14-2.26-.37-3.34-.77-3.48-2.71-6.51-5.4-8.66Zm.28,12c0,5.47-4.44,9.91-9.89,9.91h-9.91v-19.81h9.91c4.27,0,7.91,2.73,9.29,6.54.38,1.05.6,2.18.6,3.36Z"/>
        <path class="cls-1" d="m196.62,237.28v27.2h0s20.97,0,20.97,0c5.42,0,9.81-4.39,9.81-9.81,0-3.41-1.74-6.41-4.38-8.17.12-.18.21-.38.32-.58.63-1.17,1.02-2.49,1.02-3.91,0-1.68-.5-3.25-1.36-4.56-1.49-2.26-4.04-3.76-6.95-3.76h-19.42v3.59Zm20.97,21.71h-15.48v-8.65h15.48c2.39,0,4.33,1.94,4.33,4.33s-1.94,4.33-4.33,4.33Zm1.28-16.99c0,1.56-1.27,2.83-2.83,2.83h-13.93v-5.66h13.93c1.56,0,2.83,1.27,2.83,2.83Z"/>
        <path class="cls-1" d="m245,264.47c8.5,0,15.39-6.89,15.39-15.39,0-1.04-.11-2.06-.3-3.04-.66-3.31-2.39-6.22-4.81-8.39-2.73-2.45-6.32-3.96-10.28-3.96s-7.43,1.45-10.14,3.83c-2.46,2.16-4.24,5.09-4.93,8.42-.21,1.01-.32,2.07-.32,3.14,0,8.5,6.89,15.39,15.39,15.39Zm0-25.3c4.39,0,8.12,2.88,9.42,6.85.31.96.49,1.99.49,3.06,0,5.46-4.44,9.91-9.9,9.91s-9.9-4.44-9.9-9.91c0-1.09.18-2.14.51-3.12,1.31-3.94,5.02-6.78,9.39-6.78Z"/>
        <polygon class="cls-1" points="288.99 264.48 294.5 264.48 294.5 246.15 294.5 237.9 294.5 233.68 289.07 237.86 288.99 237.93 279.1 245.55 269.21 237.93 268.96 237.74 263.7 233.68 263.7 237.7 263.7 246.05 263.7 264.48 269.21 264.48 269.21 246.07 269.21 244.88 270.76 246.07 274.6 249.03 279.1 252.5 283.6 249.03 287.37 246.13 288.99 244.88 288.99 246.13 288.99 264.48"/>
        <path class="cls-1" d="m319.86,264.48c5.42,0,9.81-4.39,9.81-9.81,0-3.41-1.74-6.41-4.38-8.17.05-.08.09-.16.13-.24.75-1.25,1.2-2.69,1.2-4.25,0-1.41-.36-2.74-.98-3.91-1.4-2.62-4.16-4.41-7.34-4.41h-19.42v30.79h0s20.97,0,20.97,0Zm-15.48-19.65v-5.66h13.93c1.56,0,2.83,1.27,2.83,2.83s-1.27,2.83-2.83,2.83h-13.93Zm15.48,14.16h-15.48v-8.65h15.48c2.39,0,4.33,1.94,4.33,4.33s-1.94,4.33-4.33,4.33Z"/>
        <polygon class="cls-1" points="331.27 264.48 335.23 264.48 337.43 264.48 340.24 258.98 346.69 246.32 346.96 245.79 347.23 246.33 350.49 252.74 353.67 258.98 356.49 264.48 362.65 264.48 359.85 258.98 353.41 246.35 352.52 244.6 351.69 242.96 346.96 233.68 345.1 237.33 344.65 238.21 342.23 242.96 340.52 246.3 336.62 253.95 334.06 258.98 331.27 264.48"/>
        <path class="cls-1" d="m373.47,258.98c-1.96-.26-3.51-1.81-3.77-3.77v-21.53h-5.49v20.98c0,1.56.37,3.02,1.02,4.32.93,1.96,2.51,3.53,4.46,4.48,1.3.64,2.76,1.01,4.32,1.01h15.6v-5.49h-16.15Z"/>
        <polygon class="cls-1" points="329.61 273.29 323.77 273.29 80.59 273.29 72.56 273.29 61.24 273.29 28.69 273.29 28.69 274.17 61.64 274.17 72.88 274.17 81.05 274.17 323.33 274.17 329 274.17 342.73 274.17 386.94 274.17 386.94 273.29 343.12 273.29 329.61 273.29"/>
      </g>
    </g>
    <path class="cls-1" d="m198.82,57.61s25.34-2.26,36.09-11.16l8.14,8.94-4.48,6.11,8.22,33.54-11.03,58.48-30.05,22.75s-3.86,1.26-8.13.74,6.8-38.94,6.8-38.94l4.49-9.27-4.05-27.3s-5.73-36.36-6-36.91"/>
    <path class="cls-1" d="m239.22,149.2s-.76,9.74-.97,11.57-8.28,24.89-8.28,24.89l-9.95,9.81s-12.16,12.25-16.47,10.13c0,0-6.78-25.93-5.97-28.58s10.33-11.8,13.18-14.64"/>
    <g>
      <g>
        <path class="cls-1" d="m201.68,48.44s-10.38,5.55-18.87,4.76c0,0,14.08,6.03,20.31,3.95s10.34,33.86,2.2,45.83l2.16,29.73-14.17-8.81,11.4,16.67-3.03,2.23s4.36,4.49,1.35,8.31c0,0,10.45,15.67-1.35,27.25l7.54.84,6.35-8.75,19.75-14.34,6.3-20.04,3.36-10.98,7.93-6.46,6.37-23.38v-11.12l-11.12-1.77s-7.71-44.5-7.74-45.03-9.21-7.77-15.04-8.48c-5.83-.71-15.82.35-15.82.35"/>
        <path class="cls-1" d="m148.28,73.21c.19.67,4.87,46.54,4.87,46.54l7.29,36.72s18.63,9.84,19.44,11.23c7.66,13.16,28.49,13.16,28.49,13.16,0,0,3.86-27.25,6.39-30.82s1.64-34.07.19-36.96-.04-13.23-.19-25.21c-.15-11.98-.74-19.1-1.56-24.23s-2.33-10.44-2.33-10.44l-13.85-11.42-29.63-5.02h-11.56l-4.7,2.17"/>
        <path class="cls-2" d="m238.99,41.05s-22.42-16.41-31.2,6.66c0,0-13.81,3.41-29.41-4.22,0,0-5.2-1.3-8.94,6.17,0,0-4.22-2.92-3.74-8.77,0,0-3.9,4.22-2.11,7.96,0,0-3.41-1.3-4.22-5.2,0,0-3.74,7.8-6.17,12.19v26.81l-1.3,18.04-8.94-17.87v-40.3s10.03-30.56,43.15-36.49c0,0,40.53-4.94,57.58,23.97l8.52,6.53.87,47.2-7.31,14.63-6.78-57.3Z"/>
        <path class="cls-2" d="m190.96,176.44c-.94-.3-1.58-.57-1.97-.76-.05-.02-.08-.04-.12-.06-.32-.64-.94-1.84-1.59-3.07-.48-.9-.97-1.8-1.4-2.52-.22-.36-.41-.68-.61-.95-.1-.14-.2-.27-.33-.42-.07-.07-.14-.15-.26-.25-.08-.06-.18-.14-.34-.22-.05-.03-.18-.13-.35-.25-.8-.58-2.52-1.9-4.62-3.53-3.15-2.44-7.16-5.58-10.39-8.12-1.62-1.27-3.03-2.38-4.05-3.18-.51-.4-.91-.72-1.19-.94l-8.43-28.2-9.22-5.87c-.02-.09-.04-.17-.06-.28-.5-2.19-1.76-7.81-2.89-13.78-.56-2.98-1.1-6.06-1.49-8.82-.39-2.76-.63-5.23-.63-6.92,0-.54.02-.99.07-1.33.17-1.38.53-2.04.73-2.26.1-.12.16-.15.23-.18.06-.03.14-.04.26-.04.27,0,.76.14,1.14.34.19.1.35.2.46.27l.12.08.02.02.32-.43,1.82-2.36h0c-.06-.04-.48-.37-1.14-.71-.67-.33-1.58-.71-2.73-.72-.51,0-1.07.09-1.62.32-.83.34-1.58,1.02-2.08,1.91-.51.89-.83,1.97-1,3.32-.07.54-.09,1.13-.09,1.77,0,2.28.34,5.31.84,8.65.42,2.76.94,5.72,1.49,8.57.7,2.62,1.44,5.22,2.09,7.72.7,2.7,1.58,5.51,3.51,7.61,1.65,1.79,3.87,3.09,5.76,4.66l1.12.71,8.37,28.01.44.34s5.18,4.08,10.44,8.19c2.63,2.05,5.27,4.11,7.3,5.67,1.01.78,1.87,1.44,2.5,1.91.32.24.57.43.78.57.1.07.18.12.26.18.05.07.12.18.2.3.26.41.61,1.02.97,1.69.55,1.01,1.15,2.15,1.61,3.04.23.44.42.83.56,1.1.14.27.21.42.21.43l.2.4.36.25c.3.21,4.08,2.69,13.89,3.07l.13-3.5c-4.63-.18-7.71-.84-9.59-1.43Z"/>
        <path class="cls-2" d="m246.71,126.73c.12-.25.3-.5.56-.73,3.69-3.22,6.9-6.21,8.93-10.78,1.78-4.01,2.67-8.35,3.5-12.63.04-.21.11-.39.19-.55.27-1.55.53-3.09.75-4.57.5-3.34.84-6.37.84-8.65,0-.64-.03-1.23-.09-1.77-.14-1.12-.45-2.1-.92-2.93-.7-1.25-1.78-2.1-2.87-2.56-1.1-.47-2.21-.6-3.2-.6-2.14,0-3.82.62-3.93.65l1.16,3.31c.08-.03,1.42-.45,2.77-.45.9,0,1.74.18,2.29.57.28.2.52.44.74.81.21.37.4.89.49,1.64.04.34.07.79.07,1.33,0,1.94-.32,4.88-.81,8.13-.73,4.88-1.84,10.49-2.76,14.86-.46,2.19-.88,4.07-1.18,5.4-.13.59-.24,1.07-.32,1.42l-9.22,5.87-8.43,28.2c-.13.1-.27.22-.45.36-1.99,1.56-6.96,5.47-11.5,9.01-2.27,1.77-4.43,3.45-6.04,4.68-.81.62-1.48,1.13-1.96,1.48-.24.18-.43.31-.55.4l-.09.06c-.15.08-.25.16-.33.22-.22.19-.32.31-.43.45-.19.24-.36.5-.55.8-.64,1.04-1.49,2.62-2.2,3.98-.44.84-.82,1.59-1.05,2.04-.29.15-.88.41-1.93.68-1.58.41-4.2.86-8.3,1.01l.13,3.5c4.88-.19,7.9-.76,9.78-1.33,1.87-.57,2.62-1.15,2.87-1.39l.22-.21.14-.28s.05-.11.15-.29c.33-.66,1.18-2.32,1.99-3.82.4-.75.8-1.46,1.11-1.95.13-.21.24-.38.31-.48.14-.1.29-.2.49-.34.88-.64,2.59-1.95,4.69-3.59,6.31-4.89,16.09-12.59,16.09-12.59l.44-.34,8.37-28.01.04-.02Zm-31.77,41.84s0,0,0,0h0s0,0,0,0Z"/>
        <path class="cls-2" d="m181.31,144.41l1.88-4.78s5.2,3.81,15.27,3.81c9.22,0,17.82-2.78,17.82-2.78l1.42-3.34.6,7.75s-.29-2.71-2.23-2.39c-1.94.32-15.64,4.95-33.57.41l-1.2,1.32Z"/>
        <polyline class="cls-2" points="211.9 90.03 206.3 94.69 205.32 102.98 206.18 130.46 190.84 122.37 209 133.66 208.32 104.49"/>
        <path class="cls-2" d="m190.84,90.15c-.3.49,2.25,6.8,2.25,6.8l-29.39-4.37-4.49,2.43,7.41-8.02"/>
        <path class="cls-2" d="m252.41,80.82h8.7s1.04,7.25,0,13.36c0,0-2.38-8.27-2.38-8.38s-.21-1.97-1.04-2.29c-.83-.31-1.76-.73-2.59-.76"/>
        <polyline class="cls-2" points="246.55 126.41 239.79 156.76 220.96 168.27 237.14 154.56 238.69 149.35"/>
        <path class="cls-2" d="m216.84,170.8l-3.62,9.91s-13.53,7.65-27.92-1.09l-2.5-9.77s4.31,7.41,5.26,8.01c.95.6,3.53,1.62,5.69,1.76,2.15.14,8.62.12,9.05,0,.43-.12,2.5-.47,3.1-.64.6-.17,3.88-1.29,3.88-1.29l1.97-.86"/>
        <path class="cls-2" d="m179.62,166.81l-15.99-11.68-3.52-9.01-4.46-18.03-6.94-6.24s-3.18-2.95-3.31-3.46-2.94-5.76-2.94-5.76l-3.09-25.87s.64-2.41.83-2.76c.19-.35,4.38-2.31,4.38-2.31l-6.78-3.75-.6,10.29.6,4.36.39,3.88c1.04,4.73,2.66,9.48,3.58,14.1.65,3.24,1.36,6.67,3.09,9.53,1.65,2.73,4.16,4.4,6.6,6.29l1.46.69.26,1.18s.02.07.02.1l6,27.28,21.31,14.22-.9-3.04Z"/>
        <path class="cls-2" d="m188.99,95.8s-15.45-4.46-21.6,1.38c0,0,2.46-.46,6,1.77s11.07,2.92,12.84,1.54c0,0-3.07,5.69-5.92,7.53,0,0,11.45-2.31,12.07-13.07"/>
        <path class="cls-2" d="m211.25,90.15c.3.49-2.25,6.8-2.25,6.8l29.39-4.37,4.49,2.43-7.41-8.02"/>
        <path class="cls-2" d="m213.11,95.8s15.45-4.46,21.6,1.38c0,0-2.46-.46-6,1.77s-11.07,2.92-12.84,1.54c0,0,3.07,5.69,5.92,7.53,0,0-11.45-2.31-12.07-13.07"/>
        <path class="cls-1" d="m226.51,44.72s-14.21,10.25-26.63,11.18c0,0,11.61-3.31,26.63-11.18Z"/>
        <path class="cls-1" d="m229.58,35.28s-9.76-12.28-24.96-8.35c0,0,16.71-9.76,24.96,8.35Z"/>
        <path class="cls-1" d="m231.86,32.54s-5.42-12.42-18.98-12.52c0,0,16.12-4.44,18.98,12.52Z"/>
        <path class="cls-1" d="m234.45,29.79s-4.47-10.66-15.1-14.23c0,0,12.96.93,15.1,14.23Z"/>
        <path class="cls-1" d="m204.29,16.67s-11.67-6.36-23.77-1.92c0,0,12.3-8.48,23.77,1.92Z"/>
        <path class="cls-1" d="m210.34,16.16s-6.32-7.51-15.2-6.88c0,0,9.87-3.66,15.2,6.88Z"/>
        <path class="cls-1" d="m181.88,28.78s-9.11,3.64-11.31,12.27c0,0-.38-10.52,11.31-12.27Z"/>
        <path class="cls-1" d="m170.57,27.53s-8.23,5.35-8.7,14.24c0,0-2.42-10.24,8.7-14.24Z"/>
        <path class="cls-1" d="m211.9,104s14.22,25.37,23.35-1.78c0,0-9.84,4.98-16.95,1.07,0,0,2.25,5.33,4.62,6.52,0,0-5.81-1.19-11.02-5.81Z"/>
        <path class="cls-1" d="m250.19,94.18s9.5-13.91,7.49,4.43c0,0,6.56-28.12-7.49-4.43Z"/>
        <path class="cls-1" d="m250.19,98.6s3.38.67,1.18,4.44c-2.2,3.77-3.1,7.74-1.18,8.89,0,0-2.48-1.67.87-4.39s6.68-11.2-.43-9.31"/>
        <path class="cls-1" d="m210.87,129.58s7.35,7.2,9.15,9.86c0,0-6.44-10.57-8.83-12.51"/>
        <path class="cls-2" d="m190.07,121.74s-3.08,3.43-6.4,4.67-6.53,10.35-6.53,10.35c0,0,3.94-7.39,7.14-8.62,3.2-1.23,5.66-5.05,5.79-6.4Z"/>
        <path class="cls-2" d="m209.89,121.74s2.89,2.98,6.02,4.05,6.14,8.98,6.14,8.98c0,0-3.7-6.41-6.71-7.48s-5.32-4.38-5.44-5.56Z"/>
        <path class="cls-2" d="m152.37,94.18s-1.65,23.85,9.43,29.72l-4.76-2.16,6.28,30.09s-9.32-26.5-9.65-27-9.92-7.05-9.92-7.05l-4.79-33.1.76-2.77h5.69"/>
        <path class="cls-2" d="m246.2,94.18s1.65,23.85-9.43,29.72l4.76-2.16-6.74,32.31s9.78-28.72,10.11-29.22,9.92-7.05,9.92-7.05l6.27-27.75-2.24-8.12h-5.69"/>
        <path class="cls-1" d="m249.1,94.18s9.5-13.91,7.49,4.43c0,0,6.56-28.12-7.49-4.43Z"/>
        <path class="cls-1" d="m249.1,98.6s3.38.67,1.18,4.44-3.1,7.74-1.18,8.89c0,0-2.48-1.67.87-4.39s6.68-11.2-.43-9.31"/>
      </g>
      <path class="cls-1" d="m148.81,96.97s-9.5-13.91-7.49,4.43c0,0-6.56-28.12,7.49-4.43Z"/>
      <path class="cls-1" d="m148.81,101.39s-3.38.67-1.18,4.44,3.1,7.74,1.18,8.89c0,0,2.48-1.67-.87-4.39s-6.68-11.2.43-9.31"/>
    </g>
  </g>
  <g id="Layer_2-2" data-name="Layer 2">
    <path class="cls-1" d="m255.32,84.54l-2.91-49.71-8.02-5.84S235.23,1.32,191.97,2.24c0,0-39.19.06-50.83,37.8l-.75,46.94-.67-46.98S147.78,1.02,191.59.1c0,0,39.73-3.26,54.53,27.66l8.07,6.45"/>
  </g>
</svg>